<svg id="Layer_1" data-name="Layer 1" xmlns="http://www.w3.org/2000/svg" viewBox="0 0 66.85 45.59"><title>aquario1</title><g id="VERTICAL_GRID_SHAPES" data-name="VERTICAL GRID SHAPES"><path d="M48,17.64a27.35,27.35,0,0,1-3.22,10.53c-.1-.13-.17-.21-.23-.3a9.07,9.07,0,0,0-3.19-2.71A13.91,13.91,0,0,0,32.77,24a21.36,21.36,0,0,0-8.26,3.17c-.87.54-1.73,1.12-2.64,1.57A15.22,15.22,0,0,1-.13,15.6,14.83,14.83,0,0,1,3.5,5.34,15.13,15.13,0,0,1,23.29,2.45c1,.63,1.89,1.33,2.83,2a.48.48,0,0,0,.67.06l.07-.06A12.34,12.34,0,0,1,30.71,2,5.38,5.38,0,0,1,37.6,4.22a14.84,14.84,0,0,1,1.7,3.6c0,.16.07.3.32.26A9.91,9.91,0,0,0,43.94,6.3a20,20,0,0,0,1.8-1.57A24.75,24.75,0,0,1,48,17.64ZM28.45,5.81a18.21,18.21,0,0,0,9.09,2.44C35.47,4.51,32.12,3.51,28.45,5.81Z" transform="translate(0.14)" fill="#f78b00"/><path d="M66.13,22.9a11.53,11.53,0,0,0-11-7.83H49.82a29.28,29.28,0,0,1-.09,3.5,28.61,28.61,0,0,1-3.35,11l-.85,1.56L44.2,29.4A7.75,7.75,0,0,0,41.42,27a12.73,12.73,0,0,0-7.9-1,20,20,0,0,0-7.81,3l-.51.32A25.17,25.17,0,0,1,23,30.66a16.3,16.3,0,0,1-7.25,1.68,17,17,0,0,1-3.9-.46,1.66,1.66,0,0,1-.42-.12,17.93,17.93,0,0,0,1.84,1.75l-.4.36a10.15,10.15,0,0,0-2.38,2.84,3.55,3.55,0,0,0,1,4.92l.13.08a12.8,12.8,0,0,0,3,1.57A44.84,44.84,0,0,0,27.1,45.34c2.68.16,5.37.18,8.06.23a63.28,63.28,0,0,0,12.29-.87,31.17,31.17,0,0,0,11-4,16.92,16.92,0,0,0,7.47-9.43A13.33,13.33,0,0,0,66.13,22.9Z" transform="translate(0.14)" fill="#f78b00"/></g></svg>