<svg id="Layer_1" data-name="Layer 1" xmlns="http://www.w3.org/2000/svg" viewBox="0 0 65.1 61.07"><title>aquario3</title><path d="M9.15,20.64c.69,3.63,1.4,7.13,2,10.66a7.48,7.48,0,0,1-.32,2.78,2.22,2.22,0,0,1-2.14,1.77,6.11,6.11,0,0,1-1.95-.15,2.76,2.76,0,0,1-1.91-3.12,17.77,17.77,0,0,1,1.59-5.76C7.31,24.78,8.21,22.76,9.15,20.64Z" fill="#f78b00"/><path d="M6.31,38.64c.39,2.27.8,4.54,1.15,6.82A4.42,4.42,0,0,1,7.33,47c-.25,1.11-1.12,1.57-2.45,1.36a1.67,1.67,0,0,1-1.5-1.82,1.1,1.1,0,0,1,0-.18A10.81,10.81,0,0,1,4,43.83c.66-1.75,1.43-3.46,2.15-5.18Z" fill="#f78b00"/><path d="M2.3,34.64c.29,1.8.66,3.61.83,5.43.13,1.36-.88,2-2.19,1.66A1.24,1.24,0,0,1,0,40.25a6.64,6.64,0,0,1,.38-1.7c.52-1.32,1.1-2.63,1.65-3.94Z" fill="#f78b00"/><path d="M12.37,38.08c.3,1.8.59,3.45.85,5.1a3.05,3.05,0,0,1,0,.74c-.09,1.11-.59,1.59-1.56,1.5a1.47,1.47,0,0,1-1.57-1.36,1.49,1.49,0,0,1,0-.42,11.79,11.79,0,0,1,1.36-3.82C11.74,39.26,12,38.74,12.37,38.08Z" fill="#f78b00"/><path d="M36.13,0c-.19,1-.44,2-.54,3.06a13.11,13.11,0,0,0,1,6c.12.3.3.23.51.19a18.66,18.66,0,0,1,5.15-.55,7.42,7.42,0,0,1,5.27,2.16,7.46,7.46,0,0,1,1.89,4,16.36,16.36,0,0,1-.1,6,.66.66,0,0,0,.39.84l.07,0c1.39.57,2.79,1.13,4.15,1.78a19.7,19.7,0,0,1,10.16,24,19.29,19.29,0,0,1-9,11,19.83,19.83,0,0,1-29.5-15.58c-.11-1.32,0-2.67,0-4A27.78,27.78,0,0,0,23.51,27.6a18,18,0,0,0-7.08-8.78,11.57,11.57,0,0,0-5.17-1.71l-.49-.06A35.26,35.26,0,0,1,20.3,6.35,32.26,32.26,0,0,1,36.13,0Zm1.7,11.54A23.76,23.76,0,0,0,46.67,20C46.74,14.36,43.32,11.34,37.83,11.54Z" fill="#f78b00"/></svg>