<svg id="Layer_1" data-name="Layer 1" xmlns="http://www.w3.org/2000/svg" viewBox="0 0 74.1 62.46"><title>aries2</title><g id="Layer_4" data-name="Layer 4"><path d="M53.9,30.2a10.3,10.3,0,0,1-1.76,6.18,22.61,22.61,0,0,0-3,7.23,52.42,52.42,0,0,1-2.27,7c-1,2.48-2.06,4.93-3.21,7.34a8,8,0,0,1-3.73,3.91,5.75,5.75,0,0,1-6.16-.66,10.09,10.09,0,0,1-3.14-4,68,68,0,0,1-5.21-14,23,23,0,0,0-3.07-7.15,10.26,10.26,0,0,1-1.6-5.52A22.3,22.3,0,0,1,23,20c.26-.51.54-1,.85-1.5.83-1.31,1.65-2.63,2.54-3.9a8.05,8.05,0,0,1,2.34-2.2,5.18,5.18,0,0,1,4.39-.52c1.29.37,2.6.72,3.92,1a3.62,3.62,0,0,0,1.46-.16c1-.25,2-.52,3-.83A5.09,5.09,0,0,1,46.6,13a8.78,8.78,0,0,1,1.71,1.84,67.71,67.71,0,0,1,3.54,5.81A20.49,20.49,0,0,1,53.9,30.2Zm-1.23-2.13a11.7,11.7,0,0,1-1.88-.67,4.48,4.48,0,0,0-4.69.18C44,28.83,43.82,31,43.58,33.18h.67a3.86,3.86,0,0,1,2.1.49,3.66,3.66,0,0,0,1.29.36A4.3,4.3,0,0,0,52,30.78c.26-.93.46-1.88.67-2.76ZM21.94,28c.21.79.48,1.55.62,2.34a4.89,4.89,0,0,0,1,2.21,3.87,3.87,0,0,0,5,1,4.73,4.73,0,0,1,1.38-.34,7,7,0,0,1,1.12,0c-.18-1.61-.25-3.16-1.2-4.47a4.73,4.73,0,0,0-5.62-1.53,6,6,0,0,1-2.3.74ZM37.32,52.73c-.32,2.15-1.06,3.84-3.75,3.54a6.24,6.24,0,0,0,.68.35,1.43,1.43,0,0,1,.32.28,4.44,4.44,0,0,0,.79.83,3.54,3.54,0,0,0,3.13.34,2.72,2.72,0,0,0,1.3-.76,2.6,2.6,0,0,1,1.2-1v-.13a2.84,2.84,0,0,1-2.67-.75A4.83,4.83,0,0,1,37.32,52.73Zm-5.58-4.68h-.12c.11.34.19.68.33,1a3.61,3.61,0,0,0,3.55,2.16.88.88,0,0,0,1-.74v0a.9.9,0,0,0-.68-1.08.93.93,0,0,0-.61.08,2.64,2.64,0,0,1-3.21-1ZM43,48l-.12.17a2.73,2.73,0,0,1-3.54,1.31.9.9,0,0,0-1.12.93.82.82,0,0,0,.78.79A5,5,0,0,0,40.64,51,3.37,3.37,0,0,0,43,48Z" transform="translate(-0.23)" fill="#da0457"/><path d="M6.6,18A13.49,13.49,0,0,1,7,14,18.8,18.8,0,0,1,11.9,5.2a20.7,20.7,0,0,1,3.34-3,12.49,12.49,0,0,1,13.94-.11,15.07,15.07,0,0,1,5,6.23c.39.8.71,1.62,1.12,2.55l-.77-.19a10.45,10.45,0,0,0-3.18-.63,7.24,7.24,0,0,0-4.75,2l-.66.61L25.6,12a7.53,7.53,0,0,0-6.1-4.23,8.43,8.43,0,0,0-4.3.85A15.65,15.65,0,0,0,8.94,14.2C8.11,15.43,7.4,16.71,6.6,18Z" transform="translate(-0.23)" fill="#da0457"/><path d="M68,18.12l-.27-.5A21.73,21.73,0,0,0,61.8,10a10,10,0,0,0-6-2.27,6.93,6.93,0,0,0-5.38,2.36,27,27,0,0,0-1.79,2.45A8.19,8.19,0,0,0,44.4,10.2c-1.72-.34-3.3.23-4.95.73a1.22,1.22,0,0,1,0-.27A19.05,19.05,0,0,1,44.07,3.2,11.71,11.71,0,0,1,53.4.07a13.22,13.22,0,0,1,8.75,4.5,23,23,0,0,1,4.31,6A15.45,15.45,0,0,1,68,17.64Z" transform="translate(-0.23)" fill="#da0457"/><path d="M55.32,32.13l.12-2c.53,0,1.07-.05,1.6,0,1.53.17,3.06.33,4.58.58a7.3,7.3,0,0,0,7.5-4.25c.2-.53,0-.91-.51-1A4.6,4.6,0,0,0,67,25.3a19,19,0,0,1-8.49-1.1c-1.25-.41-2.52-.76-3.78-1.14a.41.41,0,0,1-.32-.21c-.28-.75-.54-1.51-.86-2.41a22,22,0,0,1,3.24.36c1.59.4,3.13,1,4.7,1.48a19.88,19.88,0,0,0,8.53.78,6.4,6.4,0,0,0,1.3-.35,3.7,3.7,0,0,1,2.11-.1,1,1,0,0,1,.9,1.1,1,1,0,0,1,0,.17c-.61,2.94-2.77,7.2-7.29,8.17a9.43,9.43,0,0,1-3,0,36.65,36.65,0,0,0-8.11,0A1.79,1.79,0,0,1,55.32,32.13Z" transform="translate(-0.23)" fill="#da0457"/><path d="M19,30.11l.12,2-1-.1a47.8,47.8,0,0,0-9,.2,6.73,6.73,0,0,1-3.38-.72A9,9,0,0,1,1.7,27.66,12.29,12.29,0,0,1,.27,24c-.15-.73.1-1.25.83-1.35a4.5,4.5,0,0,1,2,.06,12.79,12.79,0,0,0,4.8.51,24,24,0,0,0,8-1.94,12.84,12.84,0,0,1,4.71-.78,1,1,0,0,1,.24,0c-.27.8-.53,1.58-.81,2.35,0,.08-.14.16-.23.19l-4.94,1.52a20.36,20.36,0,0,1-5.65.86c-.87,0-1.74-.1-2.6-.16a1.31,1.31,0,0,0-.28,0c-.75.17-1.3.36-.77,1.45a7.28,7.28,0,0,0,7.78,3.88c1.8-.28,3.62-.38,5.43-.56Z" transform="translate(-0.23)" fill="#da0457"/><path d="M48.68,27.27c1.48,0,2,.7,1.84,2a2.74,2.74,0,0,1-5.25.7.72.72,0,0,1,.07-.77A4.24,4.24,0,0,1,48.68,27.27Zm-1.27,2.19a.7.7,0,0,0,.7-.7h0a.73.73,0,0,0-.69-.69.69.69,0,0,0-.72.66v0a.7.7,0,0,0,.68.7Z" transform="translate(-0.23)" fill="#da0457"/><path d="M25.61,27.25a4.36,4.36,0,0,1,3.72,2,.91.91,0,0,1,.07.72,2.45,2.45,0,0,1-2.18,1.64,2.59,2.59,0,0,1-2.67-1.16,2.69,2.69,0,0,1-.07-2.84C24.73,27.2,25.21,27.33,25.61,27.25ZM28,28.77a.64.64,0,0,0-.58-.69H27.3a.68.68,0,0,0-.71.65h0a.7.7,0,0,0,.66.72h0a.67.67,0,0,0,.71-.63Z" transform="translate(-0.23)" fill="#da0457"/><path d="M47.41,29.46a.69.69,0,0,1-.71-.67v0a.7.7,0,0,1,.68-.7h0a.73.73,0,0,1,.69.69.7.7,0,0,1-.69.71Z" transform="translate(-0.23)" fill="#da0457"/><path d="M28,28.77a.67.67,0,0,1-.65.69h-.06a.69.69,0,0,1-.7-.68v0a.68.68,0,0,1,.7-.66h0a.64.64,0,0,1,.7.58A.4.4,0,0,1,28,28.77Z" transform="translate(-0.23)" fill="#da0457"/></g></svg>