<svg id="Layer_1" data-name="Layer 1" xmlns="http://www.w3.org/2000/svg" viewBox="0 0 71.68 55.02"><title>aries3</title><g id="Layer_4" data-name="Layer 4"><path d="M44.25,44.37c-.42-1.07-.81-2.15-1.27-3.19a10.71,10.71,0,0,1-.75-5.62,29.46,29.46,0,0,1,1.68-7,8.66,8.66,0,0,1,1.92-3.15,3.1,3.1,0,0,1,1.93-.93,1,1,0,0,0,1-1s0-.06,0-.09c-.08-.55-.58-.83-1.25-.75a5.52,5.52,0,0,0-4,2.65,17.33,17.33,0,0,0-2.27,5.54,24.93,24.93,0,0,0-.91,7.29,10.35,10.35,0,0,0,1.1,4.11,8,8,0,0,1,.79,5.25,4.26,4.26,0,0,1-4,3.81c-.44.06-.89.08-1.39.13V48.46c0-.1.17-.24.29-.29a6.89,6.89,0,0,0,2.23-1.66,1,1,0,0,0,.27-1.14.88.88,0,0,0-1.48-.26c-.37.31-.71.66-1.09.94a1.7,1.7,0,0,1-2.34,0c-.35-.27-.68-.56-1-.86a1,1,0,0,0-1.38-.1.92.92,0,0,0-.07,1.3l.07.07a6,6,0,0,0,2.19,1.63.5.5,0,0,1,.36.56v2.6a4.62,4.62,0,0,1-5.3-3.31A7.55,7.55,0,0,1,30,42.79a13.28,13.28,0,0,0,1.29-3.92,16.28,16.28,0,0,0-.2-5.07,27.07,27.07,0,0,0-1.88-6.66,16.16,16.16,0,0,0-1.74-2.8A4.78,4.78,0,0,0,24,22.54a1,1,0,0,0-1,.74.9.9,0,0,0,.7,1.06h0c1.77.13,2.66,1.33,3.41,2.7a12.74,12.74,0,0,1,.71,1.55,3,3,0,0,0-2.41-1,1.51,1.51,0,0,0-1.56,1.48,1.49,1.49,0,0,0,.17.74,2.74,2.74,0,0,0,3.4,1.59,1.48,1.48,0,0,0,.93-1.27,33.57,33.57,0,0,1,1.17,5.79,10.24,10.24,0,0,1-.38,4.15c-.12.36-.26.7-.39,1.05L27.49,44.4a9.94,9.94,0,0,1-.92-3c-.24-1.49-.42-3-.64-4.48a15.32,15.32,0,0,0-1.63-4.74A15.22,15.22,0,0,1,22.6,27,12.64,12.64,0,0,1,23,22.36a20.25,20.25,0,0,1,2.41-5.85A10,10,0,0,1,32.19,12a19.37,19.37,0,0,1,7.51,0,9.39,9.39,0,0,1,5.86,3.62A17.47,17.47,0,0,1,49.19,26a12.7,12.7,0,0,1-1.45,5.56,18.92,18.92,0,0,0-1.85,5c-.23,1.44-.41,2.9-.62,4.34A11.75,11.75,0,0,1,44.25,44.37Zm1.1-13.26a2.59,2.59,0,0,0,2.48-1.51,1.56,1.56,0,0,0-1.59-2.38,2.58,2.58,0,0,0-2.12,1.2,1.9,1.9,0,0,0-.29,1.94A1.5,1.5,0,0,0,45.35,31.11Z" fill="#da0457"/><path d="M57.39,24.26a3.93,3.93,0,0,1,.08,2.07,7.88,7.88,0,0,0-.08,2A3.26,3.26,0,0,0,61.16,31a3.49,3.49,0,0,0,.85-.26,5.17,5.17,0,0,0,2.91-3.13,17.27,17.27,0,0,0,.18-12.36,10.57,10.57,0,0,0-7.65-6.88c-3.33-.93-6.1.12-8.48,2.43-.9.89-1.67,1.92-2.53,2.93a12.08,12.08,0,0,0-8-3.81,1.55,1.55,0,0,1,.07-.31,15.29,15.29,0,0,1,16-9.5A18.39,18.39,0,0,1,69.1,9.51a18.27,18.27,0,0,1,2.54,8.64,23.87,23.87,0,0,1-2.92,12.92A11.56,11.56,0,0,1,66,34.34a5.66,5.66,0,0,1-5.77,1.06,6.43,6.43,0,0,1-4.22-3.56,7.7,7.7,0,0,1,.49-6.7C56.7,24.81,57.06,24.59,57.39,24.26Z" fill="#da0457"/><path d="M33.24,9.91a12.08,12.08,0,0,0-8,3.85c-.57-.73-1.11-1.47-1.71-2.15a10.08,10.08,0,0,0-4.88-3.3,8.17,8.17,0,0,0-4.82.2C9.13,10,6.65,13.3,5.83,18a17.63,17.63,0,0,0,.45,8.26A8,8,0,0,0,8,29.61a4,4,0,0,0,3.83,1.32,3.36,3.36,0,0,0,2.49-4c-.09-.41-.16-.83-.21-1.24V24.41l.17-.07A4.52,4.52,0,0,1,15,25c1.71,2.37,1.4,6.69-.76,8.63s-4.43,2.72-7.18,1.6a8.44,8.44,0,0,1-3.67-3.43A20.63,20.63,0,0,1,.58,24.64a23.92,23.92,0,0,1-.42-8A18.65,18.65,0,0,1,6.41,4.77,17.94,17.94,0,0,1,20,.07,14.63,14.63,0,0,1,32.08,7.61c.38.63.68,1.3,1,2A2.21,2.21,0,0,1,33.24,9.91Z" fill="#da0457"/><path d="M22.75,17.29,21,22.22a13,13,0,0,1-3.34-2.14,12.27,12.27,0,0,1-3.32-5.73c-.18-.55-.06-.72.52-.63a13.59,13.59,0,0,1,2.53.55A18.61,18.61,0,0,1,22.75,17.29Z" fill="#da0457"/><path d="M50.64,22.26c-.16-.54-.27-1.08-.46-1.58-.36-1-.75-2-1.16-3-.1-.24-.09-.37.13-.53A17.63,17.63,0,0,1,56,13.79a6.27,6.27,0,0,1,1.37,0A5.36,5.36,0,0,1,57.16,15a12.21,12.21,0,0,1-3,5A14.33,14.33,0,0,1,50.64,22.26Z" fill="#da0457"/><path d="M31.71,52.81a19.22,19.22,0,0,0,8.27,0A4.6,4.6,0,0,1,36.3,55,4.72,4.72,0,0,1,31.71,52.81Z" fill="#da0457"/></g></svg>