<svg id="Layer_1" data-name="Layer 1" xmlns="http://www.w3.org/2000/svg" viewBox="0 0 62.22 60.93"><title>capricornio3</title><g id="Layer_4" data-name="Layer 4"><path d="M31.23,60.78a29.75,29.75,0,0,1-12-2.3,16.3,16.3,0,0,1-6-4.24A9.77,9.77,0,0,1,11.34,44.1a21.23,21.23,0,0,1,9.44-11.34A19.9,19.9,0,0,1,29,29.88a17.15,17.15,0,0,1,9.1,1.4A21.33,21.33,0,0,1,50.34,45c1.25,4.12.11,7.66-3,10.58a18.82,18.82,0,0,1-9.88,4.64c-2.06.37-4.16.52-6.24.76Z" transform="translate(0.04)" fill="#5fa700"/><path d="M33.08,14A22.5,22.5,0,0,1,34.3,8.36a20.47,20.47,0,0,1,3.1-6.13A9.56,9.56,0,0,1,38.56,1,3.33,3.33,0,0,1,43.28,1l.12.12a13.73,13.73,0,0,1,3.14,4.68,24.39,24.39,0,0,1,2.23,8.42A7.84,7.84,0,0,1,43.08,22a7.93,7.93,0,0,1-10-8Z" transform="translate(0.04)" fill="#5fa700"/><path d="M13.14,13.46A21.82,21.82,0,0,1,14.5,7.89,18.42,18.42,0,0,1,17.81,1.8a7.93,7.93,0,0,1,.71-.71A3.32,3.32,0,0,1,23.21.86a2.5,2.5,0,0,1,.23.23,13,13,0,0,1,2,2.55,22.82,22.82,0,0,1,3.35,10.82A7.67,7.67,0,0,1,23.08,22C18.4,23.46,13.08,19.92,13.14,13.46Z" transform="translate(0.04)" fill="#5fa700"/><path d="M62.18,28.19a30.64,30.64,0,0,1-.47,4.27,7.79,7.79,0,0,1-8.08,5.65,8,8,0,0,1-7.2-6.71,6.71,6.71,0,0,1,.9-4.42,18.32,18.32,0,0,1,7.82-7.45,8.1,8.1,0,0,1,2.41-.68,3.11,3.11,0,0,1,3.25,1.85,10.16,10.16,0,0,1,1,3.82c.13,1.21.17,2.43.24,3.65Z" transform="translate(0.04)" fill="#5fa700"/><path d="M0,28.4a22.32,22.32,0,0,1,.65-6.51c.07-.22.14-.43.22-.64A3.33,3.33,0,0,1,5,18.9l.3.09a10.47,10.47,0,0,1,2.42,1,19.37,19.37,0,0,1,7,6.9c2.49,4.15.12,8.64-3.19,10.33A7.83,7.83,0,0,1,0,30.6C0,29.87,0,29.14,0,28.4Z" transform="translate(0.04)" fill="#5fa700"/></g></svg>