<svg id="Layer_1" data-name="Layer 1" xmlns="http://www.w3.org/2000/svg" viewBox="0 0 46.6 71.11"><title>capricornio1</title><g id="Layer_4" data-name="Layer 4"><path d="M13.3,29.15a5.53,5.53,0,0,0,3.42-1.62l-1.84-1.7c-.23.14-.57.39-.94.58-.74.37-1,.24-1.13-.55-.52-3.83-1-7.67-1.52-11.5V14a4.76,4.76,0,0,0,4.17-1.48l-1.81-1.76c-.32.18-.7.45-1.12.65a1.2,1.2,0,0,1-.65.07c-.68-.15-.78-.29-.81-1l-.15-3.58V6.12c1.61.46,3.2.82,4.72,1.37,2.44.87,4.84,1.85,7.25,2.81a1.17,1.17,0,0,0,1,0,63.88,63.88,0,0,1,11.39-4l.47-.1v4.36a1,1,0,0,1-1,1,1.37,1.37,0,0,1-.4-.09,9.67,9.67,0,0,1-1.21-.69l-1.81,1.75A4.72,4.72,0,0,0,35.54,14a6.14,6.14,0,0,1-.11,1.44L33.91,26.06c-.06.48-.34.64-.84.43s-.83-.42-1.23-.66L30,27.53a5.29,5.29,0,0,0,3.28,1.61c-.25,1.12-.48,2.21-.73,3.31A161.92,161.92,0,0,1,27.1,50.6Q25.51,55.13,24,59.69a.33.33,0,0,0,0,.14c-.09.26-.19.52-.54.52s-.46-.25-.55-.51l-1.73-5C19.4,49.65,17.59,44.48,16,39.25,14.9,35.94,14.18,32.56,13.3,29.15Zm13.4,9.68L24.91,37a1.88,1.88,0,0,1-2.6.49,1.9,1.9,0,0,1-.49-.49l-1.77,1.8C22.12,40.91,24.57,40.93,26.7,38.83ZM20,47.56c2,2.16,4.62,2.18,6.72,0l-1.82-1.73a1.89,1.89,0,0,1-2.62.47,2.1,2.1,0,0,1-.47-.47Zm-4.44-28-1.75,1.78c2.11,2.12,4.6,2,6.72-.17-.31-.28-.62-.55-.92-.84l-.87-.86c-1.53,1.11-1.61,1.11-3.18.06ZM26.3,21.22c2.13,2.23,4.79,2.12,6.67,0L31.3,19.57a4.57,4.57,0,0,1-1.64.68,5.27,5.27,0,0,1-1.7-.7ZM20.07,30c2.11,2.13,4.57,2.09,6.66,0L25,28.28c-1.5,1.07-1.57,1.07-3.14,0Zm6.66-15L25,13.28c-1.43,1.08-1.61,1.08-3.13,0l-1.76,1.78c2.11,2.06,4.53,2,6.63-.06Z" transform="translate(0 -0.28)" fill="#5fa700"/><path d="M10.17,61.83c-.59.45-1.15.85-1.68,1.29a24.34,24.34,0,0,0-6.14,7.64c-.07.14-.22.32-.35.34-.6.12-1.21.19-2,.3C.65,70,1.16,68.76,1.84,67.57a21.09,21.09,0,0,1,10.3-9.23A12.9,12.9,0,0,0,18,53.75c.15.43.28.78.4,1.14.68,2,1.35,3.93,2,5.89A3,3,0,0,0,23.35,63a3.07,3.07,0,0,0,2.95-2.26c.75-2.16,1.49-4.33,2.23-6.49.06-.16.13-.32.15-.37a33.66,33.66,0,0,0,2.73,2.61,16,16,0,0,0,3.11,1.73A21.79,21.79,0,0,1,46.46,70.9c0,.13.08.26.14.45-.65-.1-1.26-.17-1.85-.31-.17,0-.34-.27-.44-.45a24.38,24.38,0,0,0-7.22-8.41l-.52-.35-1.38,2c1.15,1,2.31,2,3.4,3.11a18,18,0,0,1,2.8,3.7c-1.15-.06-2.22-.11-3.28-.2-.14,0-.28-.2-.39-.33a23.81,23.81,0,0,0-4.15-4l-.44-.3-1.45,2,2.83,2.43a15.85,15.85,0,0,1-11.14-5.41,15.5,15.5,0,0,1-11,5.32l2.69-2.32L13.6,65.77c-.72.59-1.46,1.12-2.1,1.73-.87.84-1.67,1.75-2.51,2.62a.93.93,0,0,1-.5.32c-1,.08-2,.12-3.12.18a16.53,16.53,0,0,1,2.78-3.7c1.07-1.06,2.23-2,3.4-3.11Z" transform="translate(0 -0.28)" fill="#5fa700"/><path d="M38.39,2.9c-1.69.39-3.23.73-4.75,1.12a62.32,62.32,0,0,0-9.83,3.46,1,1,0,0,1-.86,0,65.65,65.65,0,0,0-12.6-4.13L8.47,3A6.53,6.53,0,0,1,9.09.46c0-.09.24-.14.37-.15A21.42,21.42,0,0,1,20.12,2.6C21.06,3.08,22,3.54,23,4a.81.81,0,0,0,.8,0c1.6-.79,3.19-1.63,4.84-2.31A20.48,20.48,0,0,1,37.3.32a.42.42,0,0,1,.36.21C37.93,1.31,38.15,2.1,38.39,2.9Z" transform="translate(0 -0.28)" fill="#5fa700"/><path d="M40,38.32l-.75-1.14a23.4,23.4,0,0,0-3.71-4.35.65.65,0,0,1-.23-.71c.24-1,.45-2,.69-3.13.3.2.56.36.81.55a17.59,17.59,0,0,1,5,5.58.55.55,0,0,1,0,.5C41.23,36.49,40.63,37.36,40,38.32Z" transform="translate(0 -0.28)" fill="#5fa700"/><path d="M10.75,29c.25,1.16.49,2.26.71,3.36a.47.47,0,0,1-.14.37A25.29,25.29,0,0,0,6.91,38.1l-.18.19c-.63-.94-1.24-1.85-1.83-2.77a.5.5,0,0,1,0-.38A18,18,0,0,1,10.75,29Z" transform="translate(0 -0.28)" fill="#5fa700"/><path d="M10.4,42.24l-1.78-2a21.66,21.66,0,0,1,3.57-4.87c.21.78.36,1.53.63,2.24a1.46,1.46,0,0,1-.35,1.64c-.64.76-1.16,1.62-1.73,2.45C10.64,41.83,10.55,42,10.4,42.24Z" transform="translate(0 -0.28)" fill="#5fa700"/><path d="M34.56,35.39a22.1,22.1,0,0,1,3.58,4.9L36.35,42.2a21,21,0,0,0-1.85-2.62,2,2,0,0,1-.44-2.42A14.19,14.19,0,0,0,34.56,35.39Z" transform="translate(0 -0.28)" fill="#5fa700"/><path d="M15,45.46l-2.59-1.63,1.46-2.3,1.23,3.84Z" transform="translate(0 -0.28)" fill="#5fa700"/><path d="M34.3,43.83l-2.6,1.64-.09-.09,1.23-3.85Z" transform="translate(0 -0.28)" fill="#5fa700"/></g></svg>