<svg id="Layer_1" data-name="Layer 1" xmlns="http://www.w3.org/2000/svg" viewBox="0 0 65.7 61.92"><title>capricornio2</title><g id="Layer_4" data-name="Layer 4"><path d="M46,32.51c.48-.23,1-.44,1.46-.68A15.49,15.49,0,0,0,53.32,27a14.75,14.75,0,0,0,2.53-6.82A18.6,18.6,0,0,0,53,8.29a.73.73,0,0,1-.15-.39A13.37,13.37,0,0,1,54,8.9a15.86,15.86,0,0,1,5,8.76,14.44,14.44,0,0,1-1.27,9c-.41.86-.93,1.66-1.38,2.5a.78.78,0,0,0-.13.47c.43,2.4.81,4.8,1.34,7.18a17.1,17.1,0,0,0,3.11,6.89A11.44,11.44,0,0,0,64.72,47c.93.45,1.11.85.92,1.88A14.28,14.28,0,0,1,59,58.56c-.81.51-1.66.94-2.48,1.43A1.56,1.56,0,0,1,55,60c-1.58-.67-3.15-1.39-4.77-1.94A17.33,17.33,0,0,0,43,57.26c-1.37.12-2.74.27-4.11.4a1,1,0,0,1-.38-.07,31.47,31.47,0,0,1-11-7.88,15.57,15.57,0,0,1-3.62-6.58A1.31,1.31,0,0,0,22.59,42a1.2,1.2,0,0,0-1.22.94,1.54,1.54,0,0,0,0,.74,18.17,18.17,0,0,0,4.18,7.8,30.86,30.86,0,0,0,6.17,5.34l.33.24c-.61.51-1.21,1-1.78,1.49a10.38,10.38,0,0,0-2.33,2.74,1.31,1.31,0,0,1-1.77.5l-.16-.1c-.64-.39-1.27-.78-1.87-1.21a32.07,32.07,0,0,1-8.31-8.24,20.64,20.64,0,0,1-3.54-9,18.72,18.72,0,0,1,.31-6.59,1.23,1.23,0,0,1,.12-.26,6.14,6.14,0,0,0,.43.61,12.77,12.77,0,0,0,6.69,3.25,17.29,17.29,0,0,0,12.31-2.12,21.05,21.05,0,0,0,4.5-3.81,1.09,1.09,0,0,1,.89-.39c1.31,0,2.61-.1,3.91-.16-.71,1.22.12,2.12.8,3a6.73,6.73,0,0,0,3.49,2.18c1.55.48,3.14.85,4.71,1.27a2.73,2.73,0,0,1,1.47.79,1.19,1.19,0,0,0,1.51.13A1.33,1.33,0,0,0,54,39.74a9.06,9.06,0,0,0-7.47-7.09,2.21,2.21,0,0,1-.62-.06Z" fill="#5fa700"/><path d="M9.52,21.42c0-.58.11-1.16.1-1.74a1.27,1.27,0,0,1,.7-1.22A10.27,10.27,0,0,1,14,16.62a9.15,9.15,0,0,1,6.24.87,4.09,4.09,0,0,1,2.17,4.77l-.09.39a1.32,1.32,0,0,0,1,1.56,1.24,1.24,0,0,0,1.53-.83v0a10.86,10.86,0,0,0,.3-2.66,6.51,6.51,0,0,0-4.28-5.85,11.54,11.54,0,0,0-8.71-.43A14.16,14.16,0,0,0,8.39,16.7a18.57,18.57,0,0,0-5,6c-.43.77-.82,1.57-1.22,2.36a1,1,0,0,1-1.34.46h0A1.27,1.27,0,0,1,.06,24a21.28,21.28,0,0,1,1-3.42A26.21,26.21,0,0,1,11.27,8.19a21.62,21.62,0,0,1,8.47-3.34A19.19,19.19,0,0,1,32.86,7.27a13.32,13.32,0,0,1,6.41,9.63,17.82,17.82,0,0,1-1.12,10.42,20,20,0,0,1-6.28,7.77,13.39,13.39,0,0,1-6.55,2.62,14.7,14.7,0,0,1-6.81-.6,9.13,9.13,0,0,1-4.84-3.68A25.24,25.24,0,0,1,10,25.48,17.4,17.4,0,0,1,9.52,21.42Z" fill="#5fa700"/><path d="M39,31.46c.61-1.22,1.24-2.36,1.76-3.56A19,19,0,0,0,42.22,20a20.48,20.48,0,0,0-1.62-7.84A15.94,15.94,0,0,0,33,4.3a20.71,20.71,0,0,0-8-2.22c-1.08-.08-2.17,0-3.26,0V2c.28-.13.57-.26.86-.37A25.69,25.69,0,0,1,44.61,3.65c.75.43,1.46.91,2.18,1.38a12.68,12.68,0,0,1,3.36,3.78,17.59,17.59,0,0,1,3,7.32A12.8,12.8,0,0,1,50.92,26a13.63,13.63,0,0,1-5.7,4.25,14.7,14.7,0,0,1-5.69,1.28A4.41,4.41,0,0,1,39,31.46Z" fill="#5fa700"/><path d="M50,37.32c-1.91-.47-3.85-.73-5.47-2A5.81,5.81,0,0,1,50,37.32Z" fill="#5fa700"/></g></svg>