<svg xmlns="http://www.w3.org/2000/svg" xmlns:xlink="http://www.w3.org/1999/xlink" viewBox="0 0 80 80"><defs><style>.cls-1{isolation:isolate;}.cls-2{fill:#f8f8f8;}.cls-3{opacity:0.05;mix-blend-mode:multiply;}.cls-4{fill:#fff;}.cls-5{fill:#009fe2;}</style></defs><title>Escorpiao_Artboard 89</title><g class="cls-1"><g id="VERTICAL_GRID_SHAPES" data-name="VERTICAL GRID SHAPES"><g id="Layer_4" data-name="Layer 4"><path class="cls-5" d="M53,24.93a11.18,11.18,0,0,0,3.08-3.63,10.35,10.35,0,0,0,1.5-3.23,2.83,2.83,0,0,0-.4-2.57A2.18,2.18,0,0,1,59,17a1.9,1.9,0,0,0,.06-.35,3.1,3.1,0,0,0-4.59-2.22,5.44,5.44,0,0,0-2.83,3.19,12.18,12.18,0,0,0-.92,4.25,11.83,11.83,0,0,0,3.75,8.49,10,10,0,0,0,3.33,2.24A4.76,4.76,0,0,0,63,31.9a4.24,4.24,0,0,0,1.35-2.63L62.6,30.85l-.1-.08A4,4,0,0,0,63,28.33a1.75,1.75,0,0,1,.62-1.71,16.91,16.91,0,0,0,3.68-5.91c.18.26.34.47.48.68a13.47,13.47,0,0,1,2.4,8.26,12,12,0,0,1-4.61,9.14,12.75,12.75,0,0,1-8.87,2.88,13.49,13.49,0,0,1-4.93-1.25,23.71,23.71,0,0,1-7.1-4.69,14.39,14.39,0,0,1-4.16-8.51,35.15,35.15,0,0,1-.32-6.32,15.68,15.68,0,0,1,1-4,19.06,19.06,0,0,1,6.64-9.37c3.66-2.82,7.58-3.06,11.7-1.15a11.81,11.81,0,0,1,4.82,3.72,10.33,10.33,0,0,1,1.47,8.86,15.84,15.84,0,0,1-4.12,7.16c-1,1-2,2-3.07,3a8,8,0,0,1-1.52,1,.53.53,0,0,1-.52,0A12,12,0,0,1,53,24.93Z"/><path class="cls-5" d="M29.91,41.66l1.43-1.11a4.31,4.31,0,0,0-.74,0,3.09,3.09,0,0,0-2.54,2.86,6.38,6.38,0,0,0,.64,3.77,18.19,18.19,0,0,1,1,2.5,4.78,4.78,0,0,1-.13,3.19A39.43,39.43,0,0,1,26.42,60a5.06,5.06,0,0,1-1.94,1.76c-1.49.74-3.1,1.28-4.69,1.91-.17-1-.38-1.15-1.23-.81-.61.24-1.23.47-1.81.76-.92.45-1,1-.34,1.79a12.71,12.71,0,0,1-3.85,2c-2,.51-3-.71-2.76-2.3a3.8,3.8,0,0,1,.77-1.67c.77-1,1.62-2,2.46-3,.23-.27.59-.44.8-.72a5.91,5.91,0,0,0,1-1.7,6.67,6.67,0,0,1,2.62-3.52,7.08,7.08,0,0,1,4.07-1.37,6.22,6.22,0,0,0,2.82-1,2.94,2.94,0,0,0,1-2.77,6.86,6.86,0,0,0-.67-1.61c-.44-.78-.95-1.53-1.44-2.28a5.27,5.27,0,0,1-.59-4.45,8.67,8.67,0,0,1,4.75-6,5.82,5.82,0,0,1,2.88-.45.48.48,0,0,1,.36.24c1.88,4.24,5.13,7.37,8.44,10.46a1.72,1.72,0,0,1,.47.76,18.5,18.5,0,0,0,2.39,5,3.8,3.8,0,0,0,.42.48,2.14,2.14,0,0,0,3.37,0l-.41,1.8a.91.91,0,0,0,1-.52,3.09,3.09,0,0,0,0-3A6.87,6.87,0,0,0,44.2,47.5c-1.45-1.09-2.86-2.25-4.23-3.45a37.93,37.93,0,0,1-6.26-7.12,11.87,11.87,0,0,1-1.66-10.68,14.31,14.31,0,0,1,3.46-5.66,17.66,17.66,0,0,1,3.4-2.87,29.89,29.89,0,0,0-.41,3.08,39.32,39.32,0,0,0,.11,4.06c.09,1.19.27,2.38.46,3.56a16.11,16.11,0,0,0,4.5,8.68,21.75,21.75,0,0,0,8.81,5.57,1.2,1.2,0,0,1,.61.5A11.46,11.46,0,0,1,54.64,50,10.71,10.71,0,0,1,46,59.71,9,9,0,0,1,39,57.88a14.09,14.09,0,0,1-5.28-8.24,35.9,35.9,0,0,1-.6-4,5.88,5.88,0,0,0-1.28-2.93A2.58,2.58,0,0,0,30,41.8Z"/><path class="cls-5" d="M35.81,57.51l1.74,1.57.2.15c.36.29.93.52,1,.89s-.26.88-.43,1.32A4.38,4.38,0,0,0,38.41,65a3.53,3.53,0,0,0,5,1.27,36.46,36.46,0,0,0,4.33-4,10.52,10.52,0,0,1,3.85-2.67,5.78,5.78,0,0,1,4.45.25,6.5,6.5,0,0,1,1,.72,15.69,15.69,0,0,0-2-.85,4.23,4.23,0,0,0-2.88.34,8.81,8.81,0,0,0-3.38,2.63c-1.25,1.52-2.43,3.11-3.76,4.56a7,7,0,0,1-4.39,2.2,5.16,5.16,0,0,1-5.74-5.89c.2-1.57.52-3.13.78-4.7C35.68,58.45,35.73,58,35.81,57.51Z"/></g></g></g></svg>