<svg xmlns="http://www.w3.org/2000/svg" xmlns:xlink="http://www.w3.org/1999/xlink" viewBox="0 0 80 80"><defs><style>.cls-1{isolation:isolate;}.cls-2{fill:#f8f8f8;}.cls-3{opacity:0.05;mix-blend-mode:multiply;}.cls-4{fill:#fff;}.cls-5{fill:#009fe2;}</style></defs><title>Escorpiao_Artboard 86</title><g class="cls-1"><g id="VERTICAL_GRID_SHAPES" data-name="VERTICAL GRID SHAPES"><g id="Layer_4" data-name="Layer 4"><path class="cls-5" d="M53.44,70.61l-.29-.34a10.5,10.5,0,0,0-.73-1A19,19,0,0,1,48.8,61.8c-.34-1.23-.76-2.43-1.17-3.64a1.51,1.51,0,0,0-.4-.62c-1.2-1.11-2.41-2.19-3.61-3.3a.69.69,0,0,0-.72-.2c-.95.22-1.91.4-2.85.64a1.18,1.18,0,0,0-.6.46c-1.33,2-2.64,4-4,6a1.87,1.87,0,0,1-.65.6Q30,64.33,25.14,66.84a2.08,2.08,0,0,1-.95.2l-12.87-.48c-.52,0-1,0-1.56-.09a.92.92,0,0,1-.45-.17c-1.91-1.54-3.82-3.08-5.7-4.7l1.9.7A14.49,14.49,0,0,1,7.35,63a7.44,7.44,0,0,0,4.6.57c1.63-.23,3.27-.34,4.91-.51.18,0,.35-.06.66-.12l-3.88-2.12c-.17-.1-.36-.18-.52-.29a8.42,8.42,0,0,0-4.27-1.33c-1.45-.13-2.9-.34-4.35-.52a4,4,0,0,1-.45-.12c1.44-.46,2.75-.93,4.08-1.32,1.95-.57,3.93-1,5.87-1.64a7.05,7.05,0,0,1,3.32-.2c1.64.26,3.29.45,4.94.69a2.12,2.12,0,0,1,.66.21c1.15.59,2.29,1.2,3.45,1.78a2,2,0,0,0,.86.2c1.26,0,2.53,0,3.79-.07a1.17,1.17,0,0,0,.67-.25c.67-.53,1.33-1.09,2-1.67a.74.74,0,0,0,.2-.55c-.11-1-.25-2-.42-3a.55.55,0,0,0-.4-.32c-1.44-.22-2.89-.4-4.34-.6l-1-.13,3.44-2.6c-.48-.73-.59-.78-1.41-.62l-3.55.64,3-2.71c-1.21-.6-2.36-1.2-3.53-1.73-.23-.11-.56,0-.84,0A30.26,30.26,0,0,0,15.92,47a24.63,24.63,0,0,1-5.86,1.15c-1.27.18-2.54.32-3.83.43L7.48,48c1.23-.57,2.48-1.12,3.7-1.72a2.08,2.08,0,0,0,.75-.63,27.5,27.5,0,0,0,1.85-2.86L2.93,46.47l0-.06a4.19,4.19,0,0,1,.33-.26l6.38-4.52a2.26,2.26,0,0,1,.72-.34c1.92-.54,3.85-1,5.79-1.56a1.56,1.56,0,0,1,.68,0q8,1.66,15.87,3.8a2,2,0,0,0,1.11,0,11.28,11.28,0,0,1,4.13-.76A9.31,9.31,0,0,0,41,42.09a5.26,5.26,0,0,1,3-.33,6.45,6.45,0,0,0,4.26-.51,4.52,4.52,0,0,1,3.14,0,2.06,2.06,0,0,0,1.78-.18,4.06,4.06,0,0,1,3.24-.43,1.31,1.31,0,0,0,1.14-.22l0,0c2.06-1.16,2.06-1.17,4.4-1.1a.89.89,0,0,1,.56.24c1.13,1.23,2.28,2.43,3.34,3.72a2.88,2.88,0,0,1,.42,1.4c.06.35.2.53.52.55a2.59,2.59,0,0,1,2.39,1.9c.57,1.38,1.31,2.69,2,4a2.82,2.82,0,0,0,.66.8c.61.52,1.26,1,1.86,1.58-.68-.19-1.35-.44-2-.57a2.31,2.31,0,0,1-1.81-1.43c-.56-1.2-1.25-2.34-1.88-3.51a.62.62,0,0,0-.61-.4c-1.18,0-2.36,0-3.54-.06a1,1,0,0,0-.39.08c-.91.38-1.82.78-2.84,1.22a17.69,17.69,0,0,0,1.52,1,3,3,0,0,1,1.32,1.57c1,2.2,2,4.38,2.92,6.59a3.08,3.08,0,0,0,1,1.3,9.76,9.76,0,0,1,1.26,1.15c-.9-.34-1.81-.66-2.71-1A1,1,0,0,1,65.5,59c-1.21-2.18-2.42-4.38-3.62-6.58a1,1,0,0,0-.68-.52c-1.18-.25-2.35-.55-3.53-.82a.78.78,0,0,0-.48,0c-.66.32-1.31.68-2,1.07.39.39.71.78,1.09,1.09a5.53,5.53,0,0,1,1.94,3.29,43.14,43.14,0,0,0,1.37,4.85c.45,1.29,1.12,2.5,1.7,3.75a4.43,4.43,0,0,1,.38,1c-.8-.78-1.57-1.59-2.41-2.33a6.4,6.4,0,0,1-1.73-2.55c-.68-1.78-1.45-3.54-2.2-5.3a1.62,1.62,0,0,0-.52-.64c-.94-.65-1.89-1.28-2.86-1.89a1.26,1.26,0,0,0-.74-.16c-.74.08-1.49.22-2.29.35.09.17.15.3.23.42a16.42,16.42,0,0,0,1.13,1.68A5.61,5.61,0,0,1,51.4,59c.21,2.14.4,4.29.75,6.41.28,1.63.8,3.22,1.21,4.83C53.39,70.31,53.4,70.4,53.44,70.61Z"/><path class="cls-5" d="M62.56,20.56c.68-.73,1.38-1.46,2-2.21a.81.81,0,0,0,.17-.65c-.2-1-.47-2-.67-2.94a1.48,1.48,0,0,1,.08-.86c.36-.83.77-1.64,1.18-2.45a1,1,0,0,1,.39-.42c1.11-.47,2.23-.91,3.39-1.38.18,1,.36,2,.51,3a.79.79,0,0,1-.15.46q-1.86,3-3.74,6c-.06.1-.12.23-.21.27-1,.43-2,.84-2.95,1.26Z"/><path class="cls-5" d="M63,39.09a2.1,2.1,0,0,1,1-1.28c.66-.4,1.28-.86,1.92-1.29a1.23,1.23,0,0,1,1.72,0l3,2.34a.84.84,0,0,1,.14,1.28l-2.16,2.33a1.29,1.29,0,0,1-1.84.08Z"/><path class="cls-5" d="M67.39,35.52a8.64,8.64,0,0,1,.73-1.05c.6-.62,1.24-1.19,1.87-1.77s.85-.6,1.59-.23,1.47.73,2.2,1.11a1.15,1.15,0,0,1,.41,1.5c-.59.89-1.18,1.77-1.78,2.64a1.06,1.06,0,0,1-1.58.28l-3.31-2.31S67.48,35.64,67.39,35.52Z"/><path class="cls-5" d="M71.34,31.11c.06-.22.11-.45.19-.67.28-.66.58-1.32.87-2a1.25,1.25,0,0,1,1.71-.83l1.56.41a.88.88,0,0,1,.67,1.28c-.34,1-.69,2-1,2.94a.91.91,0,0,1-1.32.55c-.72-.32-1.43-.67-2.16-1A.64.64,0,0,1,71.34,31.11Z"/><path class="cls-5" d="M75.59,21.56H74.53a.81.81,0,0,1-.86-.62A20,20,0,0,1,73,18.56a3.75,3.75,0,0,1,.17-1.31c0-.1.24-.17.38-.2.69-.2,1.39-.38,2.08-.56a.83.83,0,0,1,1.1.62c.26,1.16.5,2.32.72,3.49a.88.88,0,0,1-.83,1Z"/><path class="cls-5" d="M74.75,22.29l1.56.08c.68,0,1.07.36,1,1-.06,1.11-.19,2.21-.3,3.32,0,.28-.68.69-1,.63L74,26.88a1,1,0,0,1-.71-1c.1-.9.2-1.81.35-2.7A1,1,0,0,1,74.75,22.29Z"/><path class="cls-5" d="M76,15a.59.59,0,0,1-.53.67c-.78.21-1.55.46-2.32.69a.83.83,0,0,1-1.08-.45c-.31-.63-.6-1.28-.88-1.92a.75.75,0,0,1,.4-1l1.47-.67a1,1,0,0,1,1.28.31c.43.54.87,1.07,1.28,1.63A4.24,4.24,0,0,1,76,15Z"/><path class="cls-5" d="M70.65,12.51,70,9.39l3,1.83Z"/></g></g></g></svg>