<svg xmlns="http://www.w3.org/2000/svg" xmlns:xlink="http://www.w3.org/1999/xlink" viewBox="0 0 80 80"><defs><style>.cls-1{fill:none;}.cls-2{isolation:isolate;}.cls-3{fill:#f8f8f8;}.cls-4{opacity:0.05;mix-blend-mode:multiply;}.cls-5{fill:#fff;}.cls-6{fill:#009fe2;}.cls-7{clip-path:url(#clip-path);}</style><clipPath id="clip-path"><circle class="cls-1" cx="-47" cy="145.57" r="65"/></clipPath></defs><title>Escorpiao_Artboard 88</title><g class="cls-2"><g id="VERTICAL_GRID_SHAPES" data-name="VERTICAL GRID SHAPES"><g id="Layer_4" data-name="Layer 4"><path class="cls-6" d="M55.09,43.92l.53.29-.57,1,1,.14-.49,1.12.77.47-.45.91,1.09.41-.46,1,.67.32-.25.84.83.27a1,1,0,0,1-.45,1.19c-.33.22-.64.47-1,.66a3.27,3.27,0,0,0-1.45,1.62,10.94,10.94,0,0,1-2.47,3.74,7.82,7.82,0,0,0-2.06,3.37,2.77,2.77,0,0,0,0,1.73,18,18,0,0,1,1.11,5.27c0,.73.29,1,1,.85s1.62-.39,2.44-.56a2.09,2.09,0,0,1,2.2.74,1,1,0,0,1,.23.7c0,.12-.39.18-.61.25a2,2,0,0,1-.33,0c-.22,1.1-.22,1.1-1.25,1.13-.34,1.14-.35,1.16-1.51.8a2.53,2.53,0,0,0-2.37.38,7.85,7.85,0,0,1-1.51.66c.42.2.94.39,1.41.67a7.07,7.07,0,0,1,1.28,1,1,1,0,0,1,.23.71c-.1.86-.5,1-1.31.67-.72.87-.72.87-1.55,0a4.05,4.05,0,0,0-.15.57.64.64,0,0,1-.65.61.83.83,0,0,1-.57-.48,2.43,2.43,0,0,0-2.19-1.77,1.43,1.43,0,0,0-.79.14,3.54,3.54,0,0,1-2.13.47c-.11,0-.24.13-.37.15a2,2,0,0,1-.86.06c-.1,0-.15-.5-.09-.72A2.16,2.16,0,0,1,44,73.61a1.89,1.89,0,0,0,.47-.11c.81-.27,1-.86.63-1.68a.53.53,0,0,0-.17.08c-.52.51-1,.47-1.24-.25a17.94,17.94,0,0,1-.53-2.44,4.55,4.55,0,0,1,0-.53c-.3.17-.54.29-.76.44-.59.42-.87.29-1-.42-.14-.87-.3-1.73-.48-2.6a3.23,3.23,0,0,0-.32-.65A12.18,12.18,0,0,0,38,68.22c-.7,1.13-1.33,2.3-2,3.43a3.13,3.13,0,0,1-.74.84c-.47.38-.82.24-1-.34-.07-.26-.1-.52-.16-.77-.17-.67-.32-.69-.93-.4a6.68,6.68,0,0,1-1.56.53c-.61.11-.81-.15-.75-.76q0-.39.06-.78c0-.06,0-.12-.06-.25a4,4,0,0,1-.59.19,11.67,11.67,0,0,1-1.93.28c-.63,0-.79-.3-.62-.92.09-.33.23-.65.34-1,.05-.15.09-.3.12-.42-.87,0-1.69,0-2.5,0a10.84,10.84,0,0,1-1.76-.38c-.31-.07-.38-.3-.24-.57s.42-.68.66-1.07c-.87-.08-1.7-.14-2.52-.23-1.33-.13-1.58-.67-.85-1.8.36-.57.27-.79-.38-1a15.46,15.46,0,0,1-1.94-.69c-.69-.31-.72-.81-.09-1.25a6.05,6.05,0,0,1,1.27-.64,42,42,0,0,1,8.3-2c2.34-.35,4.71-.63,7-1.12A11.53,11.53,0,0,0,38,55.77c.35-.18.23-.54,0-.75a17.74,17.74,0,0,0-1.8-1.44,59.45,59.45,0,0,1-9.12-7.24,24.76,24.76,0,0,1-1.78-2A1.35,1.35,0,0,1,25,42.8a.66.66,0,0,0-.23-.59,2,2,0,0,0-.83-.29,5,5,0,0,1-2.61-1.47,3,3,0,0,1-.62-1c-.09-.2,0-.46,0-.81a1.93,1.93,0,0,0-.34-.14,8.94,8.94,0,0,1-3.23-1.83,2,2,0,0,1-.8-1.46,1.4,1.4,0,0,0-.48-.81,4.63,4.63,0,0,0-1-.58,11.36,11.36,0,0,1-3.67-3c-.49-.61-.49-.86,0-1.52-.38-.29-.75-.61-1.15-.87a10.6,10.6,0,0,1-3.94-5c-.19-.45-.38-1,.06-1.36s.92,0,1.32.26c.75.47,1.5,1,2.25,1.46l.09-.11a2.92,2.92,0,0,0-.21-.28c-1.21-1.42-2.49-2.8-3.64-4.27A9.2,9.2,0,0,1,4.39,15a1.45,1.45,0,0,1,.29-1.16c.38-.29.74.17,1,.44.68.64,1.31,1.34,2,1.95S9.3,17.41,10.1,18a.41.41,0,0,0,.32.08c-.46-.5-.91-1-1.39-1.5a11.83,11.83,0,0,1-3.28-6.53A4.62,4.62,0,0,1,6,7.54c.26-.63.47-.66.92-.14,1.15,1.33,2.27,2.67,3.46,4,.83.9,1.74,1.72,2.62,2.57l.14-.11c-.08-.13-.14-.27-.23-.4A18.17,18.17,0,0,1,10,4.65a2.44,2.44,0,0,1,.63-2.13c.28.3.54.56.77.84A126.12,126.12,0,0,0,21.71,15.18a62.94,62.94,0,0,0,6.15,5.14c2.9,2.25,5.68,4.69,8.69,6.78a16.86,16.86,0,0,1,5.59,7.07C43.71,37.48,45.39,40.75,47,44c.08.16.18.3.32.56a2.92,2.92,0,0,0,0-.49,29.24,29.24,0,0,1,.92-6.9,6.55,6.55,0,0,1,.85-1.87,45.82,45.82,0,0,1,7.17-9.65,59.55,59.55,0,0,0,8-9.64,28.25,28.25,0,0,0,3.52-8.18Q68.42,5.75,69,3.63a.66.66,0,0,1,.86-.41A1.62,1.62,0,0,1,71,4.83a20.43,20.43,0,0,1-.14,3c-.18,1.38-.47,2.74-.7,4.12,0,.18,0,.38,0,.71.25-.17.45-.24.54-.38A22.94,22.94,0,0,0,72,10.15a15.1,15.1,0,0,0,.7-1.88c.1-.31.25-.66.61-.54a.92.92,0,0,1,.44.65,12,12,0,0,1-.45,5.4c-.32,1-.8,2-1.2,2.94a.29.29,0,0,0,0,.28c.64-.66,1.28-1.33,1.9-2,.31-.34.58-.72.9-1.05a2,2,0,0,1,.52-.29,2.07,2.07,0,0,1,.21.57,7.09,7.09,0,0,1-1.83,5.58c-1.1,1.19-2.28,2.3-3.43,3.44a6.12,6.12,0,0,1-.48.41l.07.18c.38,0,.76-.05,1.13-.11.53-.08,1.07-.18,1.59-.3s.51.1.36.38c-.7,1.25-1.4,2.51-2.84,3.08-.73.28-1.48.5-2.24.84l.74.24c-.14,1.32-.89,1.79-3.47,2.14.14.82,0,.91-.7,1.34a33,33,0,0,0-8.09,5.95c-.09.1-.19.18-.3.28l-.44-1.24c-.85.65-1.13,5.17-.9,7.5h.32Z"/><path class="cls-6" d="M55.1,43.93c.85-.22,1.69-.51,2.56-.65A25.62,25.62,0,0,1,60.93,43a3.78,3.78,0,0,1,3.42,2.57.71.71,0,0,0,.53.49,1.93,1.93,0,0,1,.87.56,3.46,3.46,0,0,1,.67,3.71A10.33,10.33,0,0,0,66,51.65a1.11,1.11,0,0,1-.74-.82c-.34-.94-.63-1.15-1.65-1.06A16.5,16.5,0,0,0,58.52,51l-.36.13.81-.92-.84-.2.33-.83-.85-.44.2-.85L57,47.5l.53-1.27H56.22l.93-1.4-1-.19.14-.72H55.1Zm6.58,2.29c.74,0,1.11-.27,1.12-.71a.73.73,0,0,0-.78-.76,7.27,7.27,0,0,0-1.6.43c-.39.16-.39.46,0,.62A12.18,12.18,0,0,0,61.68,46.22Z"/><path class="cls-6" d="M61.68,46.22a12.18,12.18,0,0,1-1.26-.42c-.39-.16-.39-.46,0-.62a7.27,7.27,0,0,1,1.6-.43.73.73,0,0,1,.78.76C62.79,46,62.42,46.25,61.68,46.22Zm-1-.78,0,.21a11.56,11.56,0,0,0,1.39.31c.14,0,.4-.27.44-.45s-.21-.43-.36-.46A1.91,1.91,0,0,0,60.68,45.44Z"/><path class="cls-6" d="M60.68,45.44a1.91,1.91,0,0,1,1.45-.39c.15,0,.39.33.36.46s-.3.46-.44.45a11.56,11.56,0,0,1-1.39-.31Z"/></g></g></g></svg>