<svg id="Layer_1" xmlns="http://www.w3.org/2000/svg" viewBox="0 0 54.7 44"><style>.st0{fill:#f78b00}</style><path class="st0" d="M20.7 0C32 4.9 43.3 4.9 54.6 0v.1c-.1 7.3-.8 14.5-3.2 21.4-1 2.9-2.4 5.6-4.4 8-5.1 6-14.3 5.9-19.3-.7-2.1-2.7-3.4-5.7-4.4-9-1.1-3.7-1.8-7.5-2.2-11.4-.2-2.6-.3-5.3-.5-7.9.1-.1.1-.3.1-.5zm24.4 24.6c-2.3 1.4-4.8 1.7-7.4 1.7-2.6 0-5.1-.3-7.4-1.7.6 2.9 4.2 5.6 7.5 5.5 3.2-.1 6.8-2.8 7.3-5.5zM33.9 13.8c0-2.3-1.6-3.8-3.9-3.7-2.1 0-3.7 1.6-3.6 3.7h7.5zm15.1 0c.1-2.1-1.5-3.8-3.8-3.8-2.6 0-3.7 2-3.7 3.8H49z"/><path class="st0" d="M0 18.8c3.5.1 7-.4 10.3-1.2 3.3-.9 6.6-1.9 9.7-3.8 1.1 5.9 2.7 11.6 6.4 16.4-4.7.9-7.7 4.7-7 8.7 2.4-3.2 5.9-4.7 9.6-5.8.1 0 .4 0 .5.1 3.1 1.8 3.1 1.8 6.4 2.5-.8 2.2-1.9 4.1-3.7 5.5-4 3.1-8.4 3.7-13 1.6-2.9-1.3-5.3-3.3-7.4-5.6C8 33.1 5 28.4 2.4 23.5c-.7-1.4-1.4-2.8-2-4.1-.3-.2-.3-.4-.4-.6zm18 7c-1.7-1.7-3.9-1.6-5.5.1-1.6 1.7-1.1 3.9.1 5.1 1.8-1.7 3.6-3.5 5.4-5.2z"/></svg>