<svg id="Camada_1" xmlns="http://www.w3.org/2000/svg" viewBox="0 0 81 81"><style>.st0{fill:#da0457}</style><path class="st0" d="M40.5 21.9c-10.2 0-18.6 8.3-18.6 18.6s8.3 18.6 18.6 18.6c10.2 0 18.6-8.3 18.6-18.6s-8.4-18.6-18.6-18.6zm0 33.3c-8.1 0-14.7-6.6-14.7-14.7s6.6-14.7 14.7-14.7 14.7 6.6 14.7 14.7-6.6 14.7-14.7 14.7zM21.9 58.8c-.5-.4-1.3-.3-1.7.3l-4.5 4.5-.3.3c-.3.4-.3.9-.1 1.3.2.4.7.7 1.1.7.4-.2.7-.4 1-.6l4.5-4.5.1-.1c.5-.5.5-1.3 0-1.8 0 0-.1 0-.1-.1zM60.7 58.9c-.5-.5-1.3-.5-1.7 0-.5.5-.4 1.3 0 1.7 1.6 1.6 3.2 3.2 4.8 4.7.3.2.6.4.9.5.5 0 1-.4 1.2-.9.2-.5.1-1-.3-1.4-1.7-1.4-3.3-3-4.9-4.6zM20.2 21.9c.2.2.4.3.7.4.5.2 1.1-.1 1.4-.6.3-.5.2-1.1-.2-1.5l-3-3-1.8-1.8c-.4-.4-.9-.5-1.4-.2-.4.2-.7.6-.8 1.1.1.3.3.6.5.9 1.5 1.6 3 3.1 4.6 4.7zM65.1 15.2c-.5-.2-1.1-.1-1.4.3L59 20.2c-.1.1-.2.1-.2.2-.4.5-.3 1.3.2 1.7.5.4 1.3.3 1.7-.2 1.6-1.5 3.1-3.1 4.7-4.7.2-.3.4-.6.5-.9 0-.5-.3-.9-.8-1.1zM13 39.3H6.2c-.7 0-1.2.7-1.1 1.3.1.7.7 1.2 1.4 1.1h6.7c.7 0 1.3-.6 1.3-1.3v-.1c-.2-.7-.8-1.1-1.5-1zM74.5 39.3h-6.6c-.4 0-.7.1-1 .3-.4.3-.5.9-.3 1.3.2.5.7.8 1.2.8H74.7c.7-.1 1.2-.7 1.1-1.4 0-.7-.6-1.1-1.3-1zM40.2 66.6c-.6.1-1 .6-1 1.2v6.8c0 .7.5 1.2 1.2 1.2h.1c.7 0 1.2-.6 1.2-1.3v-3.4-3.3c0-.2 0-.4-.1-.6-.2-.4-.8-.7-1.4-.6zM40.6 14.4c.7-.1 1.2-.7 1.1-1.3V9.8 6.5v-.2c-.1-.7-.7-1.2-1.3-1.1-.7.1-1.2.7-1.1 1.3v6.7c0 .7.6 1.2 1.3 1.2z"/></svg>