<svg id="Layer_1" data-name="Layer 1" xmlns="http://www.w3.org/2000/svg" viewBox="0 0 71.72 63.05"><title>libra_icone3</title><g id="Layer_4" data-name="Layer 4"><path d="M9.52,15H5.34c-1,0-1.55-.48-1.54-1.32s.59-1.31,1.57-1.31H30.88c.39,0,.66,0,.81-.47a1.74,1.74,0,0,1,.5-.73,1.55,1.55,0,0,0,.5-1.42V6.21H29.26A1.24,1.24,0,0,1,28,5.28a1.29,1.29,0,0,1,.59-1.5,1.7,1.7,0,0,1,.76-.18h3.37V2.53A2.52,2.52,0,0,1,35,0a2.45,2.45,0,0,1,2.53,2.15c.06.42,0,.84.07,1.33h3.26a1.34,1.34,0,1,1,.33,2.66.91.91,0,0,1-.33,0h-3.2a2.5,2.5,0,0,0-.06.38v3.7a.84.84,0,0,0,.08.41c.34.5.69,1,1.07,1.48.09.12.34.15.52.15h27a2.6,2.6,0,0,1,1.07.19A1.25,1.25,0,0,1,68,14,1.31,1.31,0,0,1,66.7,15H62.3c2.31,6.56,4.58,13.05,6.88,19.61H66.56c-.12,0-.27-.28-.34-.46l-3-8.47c-.81-2.33-1.63-4.65-2.44-7L60.54,18c-.13.33-.22.55-.29.76-1.8,5.09-3.61,10.24-5.37,15.32a.62.62,0,0,1-.72.5H51.91C54.18,28,56.46,21.52,58.76,15c-.27,0-.45-.05-.63-.05H39.28a.64.64,0,0,0-.72.45,1.68,1.68,0,0,1-.46.71,1.81,1.81,0,0,0-.55,1.6V49.92h8.38c.84,0,1,.15,1,1v2h-22c0-.86-.06-1.72,0-2.56,0-.43.5-.43.86-.43h6.85V17.19a1.71,1.71,0,0,0-.31-.78,11.8,11.8,0,0,1-.69-1,.65.65,0,0,0-.68-.43H13c2.29,6.54,4.56,13,6.86,19.58H17.33c-.13,0-.3-.25-.36-.42l-3-8.42-2.48-7.08L11.27,18c-.12.3-.21.5-.28.7C9.19,23.8,7.38,28.91,5.6,34a.67.67,0,0,1-.77.56H2.62C4.88,28,7.21,21.55,9.52,15Z" transform="translate(-0.01)" fill="#f78b00"/><path d="M35.88,63.05H19.17c-1,0-1.19-.34-.78-1.2,1-2.14,2.07-4.28,3.08-6.43a1,1,0,0,1,1.06-.67H49.27a1,1,0,0,1,1.06.67c1,2.14,2,4.26,3.06,6.39.43.9.22,1.24-.76,1.24Z" transform="translate(-0.01)" fill="#f78b00"/><path d="M11.25,36.41H21.41c1,0,1.15.23,1,1.21A11.28,11.28,0,0,1,.22,38.77c-.08-.43-.16-.87-.2-1.3-.07-.82.16-1.06,1-1.06Z" transform="translate(-0.01)" fill="#f78b00"/><path d="M60.5,36.4H70.6c1,0,1.23.2,1.1,1.26a11,11,0,0,1-5.64,8.52,11.29,11.29,0,0,1-14.81-3.33,11.72,11.72,0,0,1-2-5.13V37.3c0-.65.22-.9.88-.9Z" transform="translate(-0.01)" fill="#f78b00"/></g></svg>