<svg id="Layer_1" data-name="Layer 1" xmlns="http://www.w3.org/2000/svg" viewBox="0 0 74.6 66.3"><title>peixes3</title><g id="Layer_4" data-name="Layer 4"><path d="M15,13.3l-.19,2.26c.3-.28.49-.46.67-.65A33.29,33.29,0,0,1,26.27,7.36,31.88,31.88,0,0,1,33.9,5a.76.76,0,0,0,.39-.1c.16-.14.39-.34.39-.51s-.24-.38-.42-.48a2.72,2.72,0,0,0-.69-.19l-.26-.16c.69-.08,1.22-.16,1.76-.2a29.6,29.6,0,0,1,14.8,2.75,9,9,0,0,0,4,1h.44V6.56A9.4,9.4,0,0,1,53,6.43c-.93-.23-1.86-.48-2.76-.8-1.06-.38-2.11-.83-3.14-1.29a1.25,1.25,0,0,1-.61-.55,12.86,12.86,0,0,1-.64-1.9,29.74,29.74,0,0,0,14.37,3.5,31.6,31.6,0,0,0,14.36-4L72.9,3.27a22.12,22.12,0,0,1-10.64,6.6,23.52,23.52,0,0,1-8.8.63,33.41,33.41,0,0,0-29,11.65l-.34.44a24.38,24.38,0,0,0,12.19,4.1c-3.31,2-10.5,2.8-15,1.67l.79-1.21a.86.86,0,0,0-1,.35,13.88,13.88,0,0,1-10.49,5.7c-1,.07-2,0-3,0C6.51,28.4,10.79,17.15,15,13.3ZM14.58,29a1,1,0,1,0-1-1A1,1,0,0,0,14.58,29Z" fill="#009fe2"/><path d="M38.06,39.55a24.16,24.16,0,0,1,15.13-1.67l-.83,1.21a.81.81,0,0,0,1-.33A13.86,13.86,0,0,1,65.14,33c.61,0,1.23.07,1.83.11.66,5.51-3.36,16.08-7.56,19.81l.16-2.22c-.33.31-.57.53-.79.75a32.9,32.9,0,0,1-10.63,7.44,31.48,31.48,0,0,1-7.58,2.31.79.79,0,0,0-.4.1c-.17.13-.42.34-.4.48a.83.83,0,0,0,.44.53,3.09,3.09,0,0,0,.79.22v.2c-1.38.07-2.77.2-4.16.19a29.42,29.42,0,0,1-11.43-2.44,13.32,13.32,0,0,0-3.78-1.29,9.85,9.85,0,0,1-1.45-.07c-.07.47,0,.69.5.68a8.83,8.83,0,0,1,3.54.83c1.05.46,2.13.87,3.18,1.33a1.3,1.3,0,0,1,.6.56c.27.6.47,1.24.74,2C19,59.56,9.47,59.73,0,64.92v-.13a24.88,24.88,0,0,1,9.5-7.44,23,23,0,0,1,11.44-1.6,32.3,32.3,0,0,0,10.47-.53A33.31,33.31,0,0,0,50,44.15c.09-.11.18-.21.26-.32a.44.44,0,0,0,.06-.16A24.39,24.39,0,0,0,38.06,39.55Zm21.86-2.29a1,1,0,1,0,.06,0Z" fill="#009fe2"/><path d="M58.8,52.45A25,25,0,0,1,53.14,66.3a10,10,0,0,0-4.27-1.67c-1-.12-2.09,0-3.13-.08a1,1,0,0,1-.62-.23,5.61,5.61,0,0,0-2.91-1.65,1,1,0,0,1-.4-.21c-.25-.2-.48-.41-.74-.64A34,34,0,0,0,58.8,52.45Z" fill="#009fe2"/><path d="M21.35,0a10.15,10.15,0,0,0,6.27,1.79,2.87,2.87,0,0,1,2.54.87,2.46,2.46,0,0,0,1.06.61,4.42,4.42,0,0,1,2.16,1.2,33.93,33.93,0,0,0-17.64,9.25C15.25,11,18.49,3,21.35,0Z" fill="#009fe2"/><path d="M2.15,26.58l5.93-2.43c-.22.86-.43,1.8-.7,2.74,0,.1-.29.21-.44.2-1.42-.14-2.83-.3-4.24-.46Z" fill="#009fe2"/><path d="M66.38,42.09l.78-3,5.28.6Z" fill="#009fe2"/></g></svg>