<svg id="Layer_1" data-name="Layer 1" xmlns="http://www.w3.org/2000/svg" viewBox="0 0 51.89 48.76"><title>peixes1</title><g id="Layer_4" data-name="Layer 4"><path d="M46.3,28.58a5.5,5.5,0,1,1,.19,0Z" fill="#009fe2"/><path d="M42.7,40.32a5,5,0,1,1,5.06-4.94v.07A5,5,0,0,1,42.7,40.32Z" fill="#009fe2"/><path d="M28.36,43.47A4.49,4.49,0,1,1,32.87,48a4.49,4.49,0,0,1-4.51-4.53Z" fill="#009fe2"/><path d="M20.15,40.76a4,4,0,1,1-4,4v-.11a3.93,3.93,0,0,1,4-3.89Z" fill="#009fe2"/><path d="M8.9,42.07a3.45,3.45,0,0,1,0-6.89,3.51,3.51,0,0,1,3.46,3.48,3.44,3.44,0,0,1-3.45,3.41Z" fill="#009fe2"/><path d="M5.84,27.31a2.88,2.88,0,1,1,0-.11Z" fill="#009fe2"/><path d="M6.71,14.57A2.38,2.38,0,0,1,4.38,17H4.29a2.35,2.35,0,0,1-2.36-2.34v0a2.42,2.42,0,0,1,2.38-2.46h.05A2.38,2.38,0,0,1,6.71,14.57Z" fill="#009fe2"/><path d="M12.6,2.94a1.86,1.86,0,0,1,1.87,1.85h0a1.92,1.92,0,0,1-1.9,1.89A1.86,1.86,0,0,1,10.7,4.84v0a1.88,1.88,0,0,1,1.88-1.88Z" fill="#009fe2"/><path d="M26.26,1.34A1.34,1.34,0,0,1,24.9,2.68h0a1.39,1.39,0,0,1-1.38-1.37A1.37,1.37,0,0,1,24.89,0a1.34,1.34,0,0,1,1.37,1.31Z" fill="#009fe2"/><path d="M36.23,5.3A.8.8,0,0,1,37,4.46h0a.88.88,0,0,1,.88.84.82.82,0,0,1-.81.83h0a.83.83,0,0,1-.84-.82Z" fill="#009fe2"/><path d="M44.49,15.38c.21-.14.34-.31.42-.28a.51.51,0,0,1,.31.3.25.25,0,0,1-.18.31h-.11C44.8,15.69,44.7,15.54,44.49,15.38Z" fill="#009fe2"/></g></svg>