<svg id="Layer_1" data-name="Layer 1" xmlns="http://www.w3.org/2000/svg" viewBox="0 0 58.81 75.4"><title>sagitario1</title><path d="M17.73,9.9c.39.22.72.44,1.07.63a1.52,1.52,0,0,0,.47.1,18.23,18.23,0,0,1,2.1.24,3.54,3.54,0,0,1,2.41,1.78c.68,1.2,1.45,2.35,2.15,3.54a9.93,9.93,0,0,1,1,3.62c.13.83.3,1.66.4,2.49a.79.79,0,0,1-.22.65,13.5,13.5,0,0,1-1.83,1.26c-.92.51-1.89,1-2.89,1.46.16.11.29.21.43.29,1.18.7,2.39,1.33,3.52,2.1a5.86,5.86,0,0,0,4.35.84c2.31-.33,4.62-.73,6.93-1.11a8.44,8.44,0,0,1,4.94.49c1.2.54,2.49.84,3.71,1.32a15.62,15.62,0,0,1,1.7.94,2.49,2.49,0,0,0,.59.23c.7.17,1.43.26,2.11.48a4.79,4.79,0,0,1,3.49,4.49,4,4,0,0,0,.57,1.42,36.3,36.3,0,0,0,2.78,3.51,6,6,0,0,1,.93,5.78c-.46,1.3-1,2.59-1.51,3.85a2.26,2.26,0,0,1-1.82,1.37c-1.32.2-1.93-.14-2.43-1.49l.19.11a1.67,1.67,0,0,0,2,.31,1.77,1.77,0,0,0,.67-2,4.38,4.38,0,0,0-.43-1.05,4.48,4.48,0,0,0-.73-1.18c-1.54-1.52-1.65-3.34-1.25-5.3.07-.33.08-.67.12-1v-.15a7,7,0,0,0-1.14-1.55,11.3,11.3,0,0,0-1.89-1.14L49.7,37c-.14,1.6-.34,3.11-.37,4.63a20,20,0,0,0,.47,2c.18,1.59.29,3.18.41,4.78.06.67.08,1.35.13,2a3,3,0,0,0,.88,2c.17.16.31.36.49.51a2,2,0,0,1,.69,2.32,29.14,29.14,0,0,0-.65,8.17,19.63,19.63,0,0,1-.12,2.87,1.94,1.94,0,0,1-.52,1.13,3.37,3.37,0,0,0-.88,3,1.91,1.91,0,0,1-1.36,2.35h0a3.73,3.73,0,0,1-2.86,0c-.62-.29-.66-.58-.29-1.15s.66-1.24,1-1.83.74-1.09,1.14-1.6a1.15,1.15,0,0,0,.27-.85,3.25,3.25,0,0,1,.23-1.48A10.11,10.11,0,0,0,48.94,61c0-1,0-2-.09-3a2.57,2.57,0,0,0-.25-.9c-.41-.85-.85-1.68-1.29-2.51a1.19,1.19,0,0,0-.42-.47,10.78,10.78,0,0,1-5.3-6.84,1.27,1.27,0,0,0-.57-.77,14.25,14.25,0,0,1-1.66-1.23.63.63,0,0,0-.88-.12l-.12.12a1.41,1.41,0,0,0-.33.5c-.28.75-.52,1.53-.82,2.28a5.05,5.05,0,0,0,0,3.17,19.9,19.9,0,0,0,.71,2.27,1.78,1.78,0,0,1-.07,1.86c-1.89,2.32-2.64,5.17-3.7,7.88-.14.36-.1.8-.22,1.18a3.17,3.17,0,0,1-.47.84,2.46,2.46,0,0,1-.44.34,1.39,1.39,0,0,0-.62,1.53c.13.55.16,1.13.25,1.7a1.64,1.64,0,0,1-1.24,2,1.86,1.86,0,0,1-.33,0,10.22,10.22,0,0,1-2.21-.12,2.28,2.28,0,0,1-1-.57.81.81,0,0,1-.15-1c.28-.61.49-1.25.79-1.86.11-.23.34-.53.56-.58a1.46,1.46,0,0,0,1.2-1.34A10.43,10.43,0,0,1,31.86,62a13.23,13.23,0,0,0,2-7,3.23,3.23,0,0,0-1.07-2.44,6.32,6.32,0,0,1-2.05-4.32V48a13.65,13.65,0,0,1-5.29.11c-.58-.08-.73,0-.77.68-.07,1.36-.12,2.72-.12,4.09a23.09,23.09,0,0,1,.09,3.72,53,53,0,0,0-.16,6.55c0,1,0,2.09.06,3.13,0,.66.18,1.3.24,2a1.13,1.13,0,0,1-.11.7,5.29,5.29,0,0,0-1.06,3.84c0,.32-.07.64-.05,1a1.17,1.17,0,0,1-.94,1.31A4.48,4.48,0,0,1,19,74.93c-.61-.33-.65-.45-.51-1.12a6.6,6.6,0,0,1,2-3.42c.11-.1.21-.22.32-.32a1.8,1.8,0,0,0,.68-1.7,7.16,7.16,0,0,1,.44-2,3.55,3.55,0,0,0,.1-.64c0-2.29-.09-4.59-.16-6.88a1.54,1.54,0,0,0-.22-.62,8.76,8.76,0,0,1-.6-1.37c-.24-1.06-.38-2.15-.55-3.23A2.35,2.35,0,0,0,20.4,53,9.54,9.54,0,0,0,20,51.23c-.66-1.6-1.39-3.17-2.07-4.76a.77.77,0,0,0-.63-.53c-1.39-.32-2.78-.68-4.16-1a.6.6,0,0,0-.68.2,13.22,13.22,0,0,1-1.84,1.58c-1.37.94-2.8,1.8-4.19,2.72a2.77,2.77,0,0,0-.51.62,6.48,6.48,0,0,0-.56.71,2.4,2.4,0,0,0-.28.79,6.17,6.17,0,0,0-.06,1c0,1.53.07,3.06.12,4.6a1.71,1.71,0,0,0,.11.59,5.5,5.5,0,0,1,.41,2.37,1.13,1.13,0,0,0,.44.83,2.75,2.75,0,0,0,2,.49,1.32,1.32,0,0,1,1.25.39,9.75,9.75,0,0,1,1.31,1.7,2.18,2.18,0,0,1-.44,2.61,1.37,1.37,0,0,1-1.6.3A31,31,0,0,1,5.2,64.72,2.49,2.49,0,0,1,4.2,63,4.09,4.09,0,0,0,3,60.59a2.66,2.66,0,0,1-.58-1.94c-.08-1.8-.09-3.6-.15-5.41A1.53,1.53,0,0,0,2,52.46,2.55,2.55,0,0,1,1.61,50c.2-.57.26-1.19.48-1.75a2.78,2.78,0,0,1,.71-.85,12.33,12.33,0,0,0,.91-.86C5.47,44.26,7.2,42,9,39.71a.88.88,0,0,0,.19-.82c-.32-1.46-.62-2.93-.88-4.4A4.94,4.94,0,0,1,8.8,31.9c.29-.72.64-1.42.87-2.15a2.11,2.11,0,0,0,0-1.06c-.07-.36-.27-.7-.34-1.06-.36-2-1.63-3.52-2.57-5.35a7.88,7.88,0,0,1-.41,1A12.84,12.84,0,0,0,5,28.07a14.85,14.85,0,0,1-1.43,4.45,22.54,22.54,0,0,0-1.15,3.69,1.52,1.52,0,0,0,.28.92,3.23,3.23,0,0,0,.64.64,1.79,1.79,0,0,1,.58,1.34c0,.68.17,1.36.23,2a.5.5,0,0,1-.16.4c-.1.06-.37,0-.42,0a5.17,5.17,0,0,1-.36-.75c-.2-.43-.41-.85-.62-1.27H2.31a3.14,3.14,0,0,0-.26,1c.06.95.2,1.9.34,2.84.06.4.25.77.32,1.17a3.93,3.93,0,0,1,0,.84l-.3.15A3.29,3.29,0,0,0,2.12,45a9.67,9.67,0,0,1-2-5.46A105.5,105.5,0,0,1,.23,27.58a4.67,4.67,0,0,1,1-2.8,4.29,4.29,0,0,0,1-2.48A9.13,9.13,0,0,1,3.5,18.76a3.75,3.75,0,0,0,.4-2,5.53,5.53,0,0,1,2.54-5,2.32,2.32,0,0,1,1.06-.27,11.22,11.22,0,0,1,1.16,0c.8,0,1.12-.48.85-1.27a6.36,6.36,0,0,1-.69.46,5.91,5.91,0,0,1-.82.24c.1-.85.42-1.66,0-2.41s-.89-1.32-1.34-2l-.2.08.15,2.18a3.69,3.69,0,0,1-1-1.91A5.78,5.78,0,0,1,9.36.17a3.25,3.25,0,0,1,2.09,0c.49.17,1,.29,1.48.47a3.54,3.54,0,0,1,2.71,3,3.34,3.34,0,0,0,.58,1.27c.31.47.75.87,1.05,1.36A6.8,6.8,0,0,1,18.11,8,3.68,3.68,0,0,1,18,9.3,2.66,2.66,0,0,1,17.73,9.9Zm4.38,11.47a7.38,7.38,0,0,1-1.68-4l-.16.05,1.06,4.48Z" fill="#da0457"/></svg>