<svg id="Layer_1" data-name="Layer 1" xmlns="http://www.w3.org/2000/svg" viewBox="0 0 76.96 73.51"><title>sagitario3</title><path d="M63.59,11.61a1,1,0,0,1-.17,1.13c-.39.61-.16,1.2.32,1.79a6.62,6.62,0,0,1-3.87-1.85A2.52,2.52,0,0,0,59.76,15a34.86,34.86,0,0,1,3.53,10.21,32.73,32.73,0,0,1,.39,8.15,64,64,0,0,1-2.57,12.77,1.27,1.27,0,0,0,.63,1.67l.08,0a26.39,26.39,0,0,1,4.86,3.54,1.61,1.61,0,0,1,.6,1.35c-.14,2-.24,4-.43,6a4,4,0,0,0,1.08,3.33A101.1,101.1,0,0,1,76.13,72c.27.37.53.75.83,1.19a13.49,13.49,0,0,1-5.93,0,9.24,9.24,0,0,0-.1-1.17,3,3,0,0,0-.41-1.19c-1.55-1.89-3.14-3.73-4.73-5.59l-.21-.2a6.77,6.77,0,0,1-5.35,3.3,13.19,13.19,0,0,1-.33-5.45l2.6-.5v-.15c-9.48-8-20.63-11.44-32.94-11.85a17.23,17.23,0,0,1-5,9.36c5.29,0,9,2.17,11,7.22a3.53,3.53,0,0,1-.46,0H30.87c-.28,0-.4-.07-.49-.37a4.75,4.75,0,0,0-4.32-3.49h-.57c.06.13.08.22.12.3a25.31,25.31,0,0,0,4.07,4.81,11.32,11.32,0,0,1,3,4.52,2.36,2.36,0,0,1,.1.38H27c-.23-.79-.44-1.64-.73-2.46A22.14,22.14,0,0,0,22,63.34a.85.85,0,0,0-.56-.25H19a2.76,2.76,0,0,1-2.88-2.62A2.8,2.8,0,0,1,16.41,59a14.21,14.21,0,0,0,1.43-3.89,1.39,1.39,0,0,0-.35-1.4,13.23,13.23,0,0,1-.11-17.4c.1-.11.19-.24.35-.44a5.93,5.93,0,0,0-2.54.67A5.26,5.26,0,0,0,12.48,42,12.62,12.62,0,0,1,11,49.83,7.92,7.92,0,0,1,.75,52.77L0,52.4a19.73,19.73,0,0,0,2.05-1.48,6.44,6.44,0,0,0,2.22-5A40.27,40.27,0,0,1,5.5,35.21a7.94,7.94,0,0,1,9.05-5.85,7.82,7.82,0,0,1,5.88,4.28.67.67,0,0,0,.78.41c2.86-.17,5.73-.42,8.6-.44,3.59,0,7.18.06,10.76.22,2.2.09,4.39.39,6.57.62a2.3,2.3,0,0,0,2.72-1.79,2.24,2.24,0,0,0,0-.73A108.45,108.45,0,0,0,48.3,20.86a7.76,7.76,0,0,1,2.08-7.24c.9-.94,1.89-1.81,2.87-2.66a5,5,0,0,0,1.9-3.37,2.88,2.88,0,0,0-.23-1.33A4.63,4.63,0,0,1,56.52.77a4.57,4.57,0,0,1,3.77-.6,15.32,15.32,0,0,1,3,1.14A4.78,4.78,0,0,1,65.44,6c-.08.61-.2,1.22-.29,1.84a1.48,1.48,0,0,0,0,.42q.16.72.36,1.44c.17.64.15.7-.49.91-.33.1-.72.08-.76.6C64.22,11.35,63.86,11.45,63.59,11.61ZM58.17,35.14,58,34.76a28.41,28.41,0,0,1-2.32-5.89A11.56,11.56,0,0,1,56,21.15a9,9,0,0,0,.49-1.6A3.81,3.81,0,0,0,56,16.32a4.86,4.86,0,0,0-.68-.68c-.07.11-.06.14,0,.17l.1.1a2.84,2.84,0,0,1,.91,2.91,26,26,0,0,1-.93,3,9.43,9.43,0,0,0-.64,2.92A14.91,14.91,0,0,0,55.63,30,20.84,20.84,0,0,0,58.17,35.14Z" fill="#da0457"/></svg>