<svg xmlns="http://www.w3.org/2000/svg" viewBox="0 0 64.73 55.4"><g data-name="Layer 2"><g data-name="VERTICAL GRID SHAPES" fill="#5fa700"><path d="M22.77 33.85l3.8 9.47L23.08 45c-2.17 1-4.35 2.08-6.51 3.15a3.81 3.81 0 0 0 .67 7.12 3.6 3.6 0 0 0 2.6-.26c4.42-2.13 8.84-4.25 13.24-6.4a3.67 3.67 0 0 0 1.86-4.84C34 41.35 33 39 32.06 36.54a1.13 1.13 0 0 1 .13-.95c3.32-3.9 6.67-7.77 10-11.64a1.58 1.58 0 0 1 .22-.19l.63.56q3.63 3.38 7.28 6.74a3.3 3.3 0 0 0 5.05-.25c2.78-3.11 5.57-6.22 8.34-9.34a3.31 3.31 0 1 0-4.9-4.42q-2.87 3.19-5.71 6.4l-.59.62-2.3-2.16c-1.78-1.67-3.51-3.39-5.34-5-2.23-2-4.59-3.76-6.8-5.73C35 8.41 32 5.56 29 2.73 27 .93 25.2 1 23.45 3l-8.24 9.21a3.32 3.32 0 1 0 4.9 4.44L26 10c.15-.18.31-.35.49-.55l3.93 3.67-4.95 5.76L1.25 47.12A4.08 4.08 0 0 0 0 50.39a3.64 3.64 0 0 0 2.67 3.21 3.61 3.61 0 0 0 4.05-1.17c2.1-2.39 4.15-4.81 6.22-7.22l9.3-10.79c.17-.2.35-.42.53-.57z"/><path d="M46.08 14.64a7.32 7.32 0 1 0-7.32-7.3 7.3 7.3 0 0 0 7.32 7.3z"/></g></g></svg>