<svg xmlns="http://www.w3.org/2000/svg" viewBox="0 0 47.98 78.85"><g data-name="Layer 2"><path d="M28 22.63l-3.16 8c2.06.4 4 .63 5.84 1.15a24 24 0 1 1-10.41-.65c.71-.11 1.14-.32 1.19-1.07a.7.7 0 0 1 .09-.35c.76-1.3.16-2.22-.82-3.05-.17-.14-.32-.3-.49-.44-.4-.32-.78-.82-1.23-.9s-.83.38-1.26.57a7.69 7.69 0 0 1-8.25-1.15 13.18 13.18 0 0 1-4.71-7.15 1.77 1.77 0 0 1 1.29-2.35 14.38 14.38 0 0 1 8-.39 7.86 7.86 0 0 1 6.15 6.51 1.15 1.15 0 0 0 .32.62c.93.76 1.89 1.48 2.88 2.24.57-1.22 1.15-2.37 1.67-3.57.09-.2-.08-.55-.22-.78a10.81 10.81 0 0 1-1.79-6.8 12.12 12.12 0 0 1 6.35-9.66A24.08 24.08 0 0 1 44.1.1c1.28.12 1.88.65 1.95 1.95A25.92 25.92 0 0 1 42.76 17a13.08 13.08 0 0 1-14.18 5.79c-.14-.08-.28-.1-.58-.16zM10.74 50.54c1.13-.08 2.19-.22 3.24-.19a5.93 5.93 0 0 1 2.25.48c1.79.83 3.51 1.77 5.25 2.68A2.35 2.35 0 0 1 22.55 57c-1.82 3.34-3.66 6.68-5.48 10a1.74 1.74 0 0 1-1.78 1 1.68 1.68 0 0 1-1.5-1.41c-.4-1.39-.78-2.79-1.2-4.18-.88-2.95-.28-2.19-2.86-3.74l-.26-.15a2.41 2.41 0 0 1-1.17-2.58c.18-1 .37-2.08.59-3.11a1.07 1.07 0 0 0-.33-1.11c-1.13-1.1-2.23-2.23-3.34-3.35-.14-.14-.31-.27-.49-.42a20.45 20.45 0 0 0 30.53 23.93C42.65 67 45 58.78 44.31 53.71l-.53 1C42.19 57.46 40.94 60.45 39 63a1.67 1.67 0 0 1-1.77.77A1.59 1.59 0 0 1 36 62.38c-.39-2-.8-3.9-1.18-5.85-.13-.7-.47-1.13-1.21-1.14a5 5 0 0 1-3.62-1.9 3.16 3.16 0 0 1-.69-3.62c.66-1.45 1.51-2.81 3.29-3.08 1.56-.23 3.13-.38 4.68-.59a1.28 1.28 0 0 0 .84-.36c.55-.92 1-1.89 1.55-2.94H39l-5.9.3a2.75 2.75 0 0 1-2.8-4c.48-1.08 1-2.15 1.45-3.23a1.69 1.69 0 0 0-.27-.17 20.52 20.52 0 0 0-14.58-.2c-.42.15-.46.4-.45.78.07 1.77.1 3.55.18 5.32a3.1 3.1 0 0 1-1.49 2.93c-1.38.9-2.75 1.82-4.08 2.79a1.63 1.63 0 0 0-.59 1.07 13.49 13.49 0 0 0 .27 2.05zM27.3 16.89l.7-1.08a36.94 36.94 0 0 1 8.2-8.67A1.78 1.78 0 1 1 38.31 10a35.73 35.73 0 0 0-8.18 9.15 3 3 0 0 0-.14.3c.3.06.56.12.83.15A9.85 9.85 0 0 0 40 14.73a22.68 22.68 0 0 0 2.49-8.81c.06-.77.08-1.55.13-2.34h-.49A21.64 21.64 0 0 0 31 6.6a9.26 9.26 0 0 0-3.81 4.4 7 7 0 0 0 .11 5.89zm13.88 26.84c-.5 1-.94 1.87-1.39 2.74A2.65 2.65 0 0 1 37.64 48c-1.37.17-2.73.33-4.1.47a3.1 3.1 0 0 0-2.69 2.25 1.66 1.66 0 0 0 .07 1.06 3.22 3.22 0 0 0 2.58 1.82 3 3 0 0 1 3 2.73c.35 1.77.71 3.53 1.1 5.48.53-.76 1-1.33 1.35-2 1.6-2.94 3.17-5.89 4.74-8.84a1.38 1.38 0 0 0 .18-.83 19.27 19.27 0 0 0-2.69-6.41zM15.5 66.18c1.91-3.49 3.73-6.81 5.54-10.13.3-.54 0-.8-.46-1-1.45-.73-2.92-1.42-4.31-2.25a4.78 4.78 0 0 0-3.27-.67 13.75 13.75 0 0 1-1.69.14c-.41 0-.62.14-.67.59s-.22 1.16-.32 1.74c-.47 2.64-.8 1.95 1.52 3.31a4.07 4.07 0 0 1 2 2.59c.54 1.85 1.09 3.68 1.66 5.68zm-.66-29.51a1.68 1.68 0 0 0-.27 0 20.14 20.14 0 0 0-8.93 9.11.54.54 0 0 0 0 .45c1 1 2.06 2 3.2 3.12-.52-2 .5-3.07 2-3.94.78-.46 1.51-1 2.26-1.53 2.15-1.49 1.82-.87 1.79-3.47-.06-1.25-.05-2.5-.05-3.74zM8.71 18.19c1.08 1.93 2.18 3.61 4.16 4.47a4.17 4.17 0 0 0 2.89.21c.86-.26 1.14-.72.8-1.56a5.15 5.15 0 0 0-1-1.61c-1.87-2.05-4.3-1.7-6.85-1.51zm24.72 18.47c-.5 1.09-1 2.11-1.43 3.13s0 1.69 1.17 1.63l5.16-.26.82-.07a20.28 20.28 0 0 0-5.72-4.43z" fill="#5fa700" data-name="VERTICAL GRID SHAPES"/></g></svg>