<svg xmlns="http://www.w3.org/2000/svg" xmlns:xlink="http://www.w3.org/1999/xlink" viewBox="0 0 80 80"><defs><style>.cls-1{isolation:isolate;}.cls-2{fill:#f8f8f8;}.cls-3{opacity:0.05;mix-blend-mode:multiply;}.cls-4{fill:#fff;}.cls-5{fill:#5fa700;}</style></defs><title>Virgem_Artboard 77</title><g class="cls-1"><g id="VERTICAL_GRID_SHAPES" data-name="VERTICAL GRID SHAPES"><g id="Layer_4" data-name="Layer 4"><path class="cls-5" d="M66.73,76.53a.7.7,0,0,1-1,.7c-1.38-.58-2.77-1.14-4.12-1.78A63.9,63.9,0,0,1,41.83,60.66,83.92,83.92,0,0,1,27.69,39a111.4,111.4,0,0,1-5-12.94,1.92,1.92,0,0,1-.09-.4.62.62,0,0,1,.43-.71.63.63,0,0,1,.78.32,2.52,2.52,0,0,1,.21.54,103.49,103.49,0,0,0,8.09,19A75.82,75.82,0,0,0,46.52,63.54,62,62,0,0,0,64.21,75.2c.65.29,1.33.5,2,.81A2.14,2.14,0,0,1,66.73,76.53Z"/><path class="cls-5" d="M26.52,57.74c2.69-.06,5.38-.14,8.07-.18A5,5,0,0,1,39,59.7a4,4,0,0,1,.65,1.62c.35,2.22-1.58,3.55-3.68,3.14a6.74,6.74,0,0,1-2.12-.85A54.54,54.54,0,0,1,26.59,58a.45.45,0,0,1-.1-.13Z"/><path class="cls-5" d="M20,46.71c1.38.1,2.72.16,4.06.3,1.62.18,3.26.32,4.85.66a4.4,4.4,0,0,1,3.56,3.68,2.72,2.72,0,0,1-2.68,3.29,4.87,4.87,0,0,1-3.38-1.32A63.69,63.69,0,0,1,20,46.87,1.08,1.08,0,0,1,20,46.71Z"/><path class="cls-5" d="M14.84,35.08c.79.13,1.5.23,2.2.38,1.95.42,3.9.82,5.84,1.29a4.77,4.77,0,0,1,3.66,3.3,2.83,2.83,0,0,1-2.13,3.89A4,4,0,0,1,21,42.75a24.49,24.49,0,0,1-2.18-2.37c-1.28-1.62-2.5-3.3-3.74-5A3.88,3.88,0,0,1,14.84,35.08Z"/><path class="cls-5" d="M11,23.06c.76.21,1.45.37,2.12.59,2.12.71,4.24,1.4,6.34,2.17a4.54,4.54,0,0,1,2.75,4.31,2.78,2.78,0,0,1-3.51,2.62A4.81,4.81,0,0,1,16.06,31a54.94,54.94,0,0,1-4.54-7Z"/><path class="cls-5" d="M19.75,10.18c.52.86,1.08,1.71,1.57,2.59,1.07,1.91,2.17,3.81,3.11,5.78a3.76,3.76,0,0,1-.32,3.69,2.56,2.56,0,0,1-3.89.68,4.5,4.5,0,0,1-1.78-3.43A26.45,26.45,0,0,1,19,13.41c.18-1.07.4-2.13.6-3.19Z"/><path class="cls-5" d="M32.48,17.62v.29c-.12,2.58-.22,5.16-.36,7.74a4,4,0,0,1-1.57,3.14,2.78,2.78,0,0,1-4.39-1.19,4.13,4.13,0,0,1,.61-4.35,38.55,38.55,0,0,1,5-5.09l.65-.56Z"/><path class="cls-5" d="M35.59,27.48c.11,1.33.26,2.67.33,4S36,34.48,36,36a3.67,3.67,0,0,1-1.18,2.71,2.76,2.76,0,0,1-4.38-.45,4,4,0,0,1-.24-4.1,9.72,9.72,0,0,1,1.17-1.82c1.32-1.66,2.68-3.28,4-4.91Z"/><path class="cls-5" d="M39.65,36.72c.22,1.11.46,2.09.61,3.08.29,2,.6,3.91.79,5.88a3.37,3.37,0,0,1-2.88,3.42,2.74,2.74,0,0,1-2.72-1.54,3.69,3.69,0,0,1-.31-3.6,42.25,42.25,0,0,1,2.31-4.1C38.1,38.81,38.87,37.83,39.65,36.72Z"/><path class="cls-5" d="M50.43,30.75a52.08,52.08,0,0,1,3.26-18c0-.11.06-.27.14-.33s.41-.29.56-.24.27.32.29.51a1.46,1.46,0,0,1-.15.56,47.52,47.52,0,0,0-2.84,11.92A51.23,51.23,0,0,0,51.83,37a53.45,53.45,0,0,0,7,20.55c.53.9,1.12,1.76,1.68,2.64,0,.09.16.18.16.27s.05.54-.07.68-.52.1-.7-.15c-.35-.49-.69-1-1-1.51a55.57,55.57,0,0,1-7.52-19.22A52.88,52.88,0,0,1,50.43,30.75Z"/><path class="cls-5" d="M44.73,45.38A55.49,55.49,0,0,1,47.26,54c.26,1.68-1,3.9-3.17,3.77a3.13,3.13,0,0,1-2.74-2.2A3.84,3.84,0,0,1,41.19,53,39.88,39.88,0,0,1,44.73,45.38Z"/><path class="cls-5" d="M43.25,24c.72.56,1.35,1,2,1.52a41.21,41.21,0,0,1,3.41,3.05A3,3,0,0,1,49.15,32a2,2,0,0,1-3.26.79,3.87,3.87,0,0,1-1-1.41A35.18,35.18,0,0,1,43.25,24Z"/><path class="cls-5" d="M45.25,14.6c.74.82,1.5,1.62,2.21,2.45a25.23,25.23,0,0,1,2.19,2.78,3.13,3.13,0,0,1,0,3.48,2,2,0,0,1-3.27.29,3.74,3.74,0,0,1-1-2.42c-.13-2.17-.21-4.34-.31-6.51Z"/><path class="cls-5" d="M43.05,33.8c1,.54,2,1,2.88,1.58s2,1.19,3,1.86a3.4,3.4,0,0,1,1.18,3.45,2,2,0,0,1-3.43,1,4,4,0,0,1-1-1.12A35.93,35.93,0,0,1,43.05,34,1.24,1.24,0,0,1,43.05,33.8Z"/><path class="cls-5" d="M48.59,5.6a52.34,52.34,0,0,1,3.47,5.57,3.23,3.23,0,0,1,.12,2.6A4.07,4.07,0,0,1,51.36,15a1.89,1.89,0,0,1-2.63,0,2.85,2.85,0,0,1-1-2.29c.11-1.82.31-3.64.49-5.46,0-.56.18-1.12.27-1.69Z"/><path class="cls-5" d="M59.42,2.14c-.17,1.12-.3,2.11-.49,3.1-.25,1.31-.49,2.61-.83,3.89a2.7,2.7,0,0,1-2,1.95A1.87,1.87,0,0,1,53.7,9.43a3.2,3.2,0,0,1,.77-2.75C55.69,5.42,57,4.25,58.28,3.06,58.61,2.76,59,2.5,59.42,2.14Z"/><path class="cls-5" d="M63.06,12.29c-.3.37-.58.74-.89,1.08C61.06,14.58,60,15.84,58.79,17a2.35,2.35,0,0,1-3.57-.39,2.49,2.49,0,0,1,.5-2.84,3.06,3.06,0,0,1,1.94-1c1.75-.19,3.51-.35,5.27-.52C63,12.23,63,12.25,63.06,12.29Z"/><path class="cls-5" d="M59.09,33.06c-.53,2-1,4-1.62,6a2.4,2.4,0,0,1-3.26,1.46,2.45,2.45,0,0,1-1-2.7,3,3,0,0,1,1-1.65A29.66,29.66,0,0,1,58.94,33Z"/><path class="cls-5" d="M60.62,19.09c-1.15,1.71-2.26,3.44-3.46,5.11a2.37,2.37,0,0,1-2.5.91,2,2,0,0,1-1.45-2.8,2.83,2.83,0,0,1,1.58-1.83A27,27,0,0,1,60.51,19Z"/><path class="cls-5" d="M59.28,26c-.87,1.89-1.67,3.81-2.62,5.66a2.36,2.36,0,0,1-3.43.83,2.27,2.27,0,0,1-.67-2.44,2.83,2.83,0,0,1,1.33-1.82,29.29,29.29,0,0,1,5.24-2.34Z"/></g></g></g></svg>