<svg xmlns="http://www.w3.org/2000/svg" xmlns:xlink="http://www.w3.org/1999/xlink" viewBox="0 0 80 80"><defs><style>.cls-1{fill:none;}.cls-2{isolation:isolate;}.cls-3{fill:#f8f8f8;}.cls-4{opacity:0.05;mix-blend-mode:multiply;}.cls-5{fill:#fff;}.cls-6{fill:#5fa700;}.cls-7{clip-path:url(#clip-path);}</style><clipPath id="clip-path"><circle class="cls-1" cx="-47" cy="145.57" r="65"/></clipPath></defs><title>Virgem_Artboard 78</title><g class="cls-2"><g id="VERTICAL_GRID_SHAPES" data-name="VERTICAL GRID SHAPES"><g id="Layer_4" data-name="Layer 4"><path class="cls-6" d="M56.88,23.05c.71-.08,1.33-.18,2-.22a8.68,8.68,0,0,1,8.48,4.55,19.11,19.11,0,0,1,2.21,6.78c1,5.8-.79,10.82-4.2,15.41A35.91,35.91,0,0,1,60,55.26l-.47.44s0,.1.08.13A14.5,14.5,0,0,0,68.05,59a16.83,16.83,0,0,1,1.74,0,2.75,2.75,0,0,1,.44,5.35,10.55,10.55,0,0,1-4,.11,21,21,0,0,1-11-4.93L55,59.27c-1.32.83-2.6,1.68-3.91,2.48a68.87,68.87,0,0,1-8,4.17,2.74,2.74,0,0,1-3.56-1.4,2.77,2.77,0,0,1,1.25-3.65c1.23-.62,2.51-1.14,3.7-1.82,2.22-1.26,4.4-2.6,6.58-3.93a.66.66,0,0,0,.27-.49q0-10.17,0-20.35c0-4.73,0-9.46,0-14.19a4.44,4.44,0,0,0-8.87-.38q0,17.22,0,34.44a3,3,0,0,1-1.06,2.49,2.77,2.77,0,0,1-4.53-2.14q0-6.28,0-12.58,0-10.8,0-21.62a4.56,4.56,0,0,0-1.87-4,4.2,4.2,0,0,0-4.5-.4,4.13,4.13,0,0,0-2.51,3.89q0,17.17,0,34.35a2.94,2.94,0,0,1-1.24,2.64,2.78,2.78,0,0,1-4.35-2.12c0-.22,0-.45,0-.68q0-16.73,0-33.47a7.45,7.45,0,0,0-.27-2.05,4.43,4.43,0,1,0-7.88,3.89,2.82,2.82,0,0,1-.8,3.93,2.79,2.79,0,0,1-3.87-.87,10,10,0,0,1,6.38-15.34,9.69,9.69,0,0,1,8.44,2.18c.26.21.51.44.76.66a10.2,10.2,0,0,1,14.5,0c.46-.38.9-.79,1.39-1.13A10,10,0,0,1,56.66,18a14.93,14.93,0,0,1,.21,2.32C56.91,21.21,56.88,22.12,56.88,23.05Zm0,27.45a4.82,4.82,0,0,0,.41-.36c1-1.07,2.07-2.1,3-3.24,3.09-3.78,4.73-8,3.54-13a11.44,11.44,0,0,0-1.65-4.21,3.14,3.14,0,0,0-3.09-1.32,13.49,13.49,0,0,0-1.65.36c-.41.09-.57.3-.57.77,0,6.77,0,13.54,0,20.3Z"/></g></g></g></svg>